<?xml version="1.0" encoding="UTF-8"?>
<!-- Generator: Adobe Illustrator 24.1.2, SVG Export Plug-In . SVG Version: 6.00 Build 0)  -->
<svg version="1.1" id="Layer_1" xmlns="http://www.w3.org/2000/svg" xmlns:xlink="http://www.w3.org/1999/xlink" x="0px" y="0px" viewBox="0 0 1042 197" style="enable-background:new 0 0 1042 197;" xml:space="preserve">
<style type="text/css">
	.st0{fill:#FFFFFF;stroke:#FFFFFF;stroke-width:2.2;stroke-miterlimit:10;}
	.st1{fill:#FFFFFF;}
	.st2{fill-rule:evenodd;clip-rule:evenodd;fill:#FFFFFF;}
</style>
<g>
	<path class="st0" d="M241.9,94l-5.6-17.6c-0.3-0.9-0.3-1.5-0.9-2.4c-0.3-0.9-0.3-1.5-0.9-2.4c-0.3-0.9-0.3-1.5-0.9-2.4   c-0.3,0.9-0.3,1.5-0.9,2.4c-0.3,0.9-0.3,1.5-0.9,2.4c-0.3,0.9-0.3,1.5-0.9,2.4l-5.3,17.5h-6.8L230,62.3h7.6l11.1,31.6L241.9,94   L241.9,94L241.9,94z"/>
	<path class="st0" d="M272.6,94L267,76.5c-0.3-0.9-0.3-1.5-0.9-2.4c-0.3-0.9-0.3-1.5-0.9-2.4c-0.3-0.9-0.3-1.5-0.9-2.4   c-0.3,0.9-0.3,1.5-0.9,2.4c-0.3,0.9-0.3,1.5-0.9,2.4c-0.3,0.9-0.3,1.5-0.9,2.4L256.4,94h-6.8l11.1-31.6h7.6L279.4,94H272.6z"/>
	<polygon class="st0" points="304,94 304,79.9 292.6,79.9 292.6,94 285.8,94 285.8,62.4 292.6,62.4 292.6,74.9 304,74.9 304,62.4    310.9,62.4 310.9,94  "/>
	<path class="st0" d="M340,94l-8-14.4c-0.3-0.9-0.9-1.5-1.2-2.8c-0.3-0.9-0.9-2.1-1.2-2.8c-0.3-0.9-0.9-2-1.5-3.2c0,1.2,0,2.4,0,3.6   c0,0.9,0,2.1,0,3.2s0,2.1,0,2.8l0.3,13.5h-6.8v-31h7.6l8,14.4c0.3,0.9,0.9,1.5,1.2,2.4c0.3,0.9,0.9,1.5,1.2,2.4   c0.3,0.9,0.9,1.5,0.9,2c0.3,0.3,0.3,0.9,0.3,1.2c0,0,0-0.3,0-0.9c0-0.9,0-1.2-0.3-2.4c0-0.9,0-2.1,0-2.8c0-0.9,0-2.1,0-2.4V63.6   h6.4V94H340z"/>
	<rect x="358" y="62.4" class="st0" width="7.2" height="31.1"/>
	<path class="st0" d="M375.9,62.4h6.8V94h-6.8V62.4z M394.7,94L383,77.2l11.1-14.7h8.4l-12,14.4l13.3,16.8L394.7,94L394.7,94z"/>
	<polygon class="st0" points="428.3,94 428.3,79.9 416.7,79.9 416.7,94 410,94 410,62.4 416.7,62.4 416.7,74.9 428.3,74.9    428.3,62.4 435,62.4 435,94  "/>
	<path class="st0" d="M485.8,94H457v-4.4l11.7-27.1h6.8l11.1,26.7L485.8,94z M474.5,76.4c-0.3-0.9-0.9-1.5-0.9-2.4   c-0.3-0.9-0.3-1.5-0.9-2.4c-0.3-0.9-0.3-1.5-0.9-2.4c-0.3,1.2-0.9,2-0.9,2.8c-0.3,0.9-0.3,1.5-0.9,2.4c-0.3,0.9-0.3,1.5-0.9,2.1   l-5.2,12.3h15.3L474.5,76.4z"/>
	<polygon class="st0" points="511.7,94 511.7,79.9 500.5,79.9 500.5,94 493.8,94 493.8,62.4 500.5,62.4 500.5,74.9 511.7,74.9    511.7,62.4 519,62.4 519,94  "/>
	<path class="st0" d="M559.6,94l-1.2-17.9c0-0.3,0-1.2,0-2.1s0-1.5,0-2c0-0.9,0-1.2,0-1.5s0-0.9,0-0.9s0,0.3-0.3,0.9   c0,0.3-0.3,1.2-0.3,1.5c0,0.9-0.3,1.2-0.3,2c-0.3,0.9-0.3,1.2-0.3,2.1L551,94.5h-5.9l-5.6-17.9c0-0.3-0.3-1.2-0.3-2.1   c-0.3-0.9-0.3-1.5-0.3-2.4s-0.3-1.2-0.3-2.1c0-0.3-0.3-0.9-0.3-1.2c0,1.2,0,2.1,0,2.8c0,0.9,0,1.5,0,2.4s0,1.5,0,2.1L537.1,94h-7   l3.6-31.1h8.8l5.2,16.8c0,0.3,0.3,1.2,0.3,2.1s0.3,1.5,0.3,2.1c0,0.9,0.3,1.2,0.3,2c0,0.3,0,0.9,0,0.9s0-0.3,0-0.9   c0-0.3,0.3-1.2,0.3-2c0-0.9,0.3-1.5,0.3-2.1s0.3-1.2,0.3-2.1l5.2-16.8h8.8l3.2,31.1L559.6,94L559.6,94z"/>
	<path class="st0" d="M605.5,77.9c0,2.4-0.3,4.4-0.9,6.4c-0.9,2.1-1.5,3.6-2.8,5.2c-1.2,1.5-2.8,2.4-4.8,3.2   c-2.1,0.9-4.4,1.2-6.8,1.2c-2.4,0-4.8-0.3-6.8-1.2c-2.1-0.9-3.6-2.1-4.8-3.2c-1.2-1.5-2.4-3.2-3.2-5.2c-0.9-2.1-1.2-4-1.2-6.4   c0-5.2,1.2-9.2,4-12c2.8-2.8,6.8-4.4,11.7-4.4c2.4,0,4.8,0.3,6.8,1.2s3.6,2.1,4.8,3.2c1.2,1.5,2.4,3.2,2.8,5.2   C605.2,73.7,605.5,75.5,605.5,77.9 M597.6,78.4c0-1.2,0-2.8-0.3-4c0-1.2-0.3-2.4-1.2-3.6c-0.3-1.2-1.2-2.1-2.4-2.8   c-1.2-0.8-2.4-0.9-4.4-0.9c-1.5,0-3.2,0.3-4,1.2c-1.2,0.9-2.1,1.5-2.4,2.7c-0.3,1.2-0.9,2.4-1.2,3.6c0,1.2-0.3,2.8-0.3,4   c0,1.5,0,2.8,0.3,4c0,1.2,0.3,2.4,1.2,3.6c0.3,1.2,1.2,2.1,2.4,2.4c1.2,0.9,2.4,0.9,4.4,0.9c1.5,0,3.2-0.3,4-1.2   c1.2-0.9,1.5-1.5,2.4-2.8c0.3-1.2,0.9-2.4,1.2-3.6C597.6,80.8,597.6,79.6,597.6,78.4"/>
	<path class="st0" d="M614.2,62.4h6.8V94h-6.8V62.4z M633.2,94l-11.7-16.8l11.1-14.7h8.4l-12,14.4l13.2,16.8L633.2,94L633.2,94z"/>
	<path class="st0" d="M673.1,71.9c0,2-0.3,3.6-1.5,5.2c-1.2,1.5-2.1,2.4-3.6,3.2c-0.9,0.3-1.2,0.9-2,0.9c-0.9,0.3-1.2,0.3-2.1,0.3   c-0.9,0-1.2,0.3-2.1,0.3c-0.9,0-1.5,0-2.4,0H655v12.1h-6.8v-31h9.6c1.5,0,2.8,0,4,0s2,0,2.8,0.3c0.9,0,1.2,0.3,2.1,0.3   c0.3,0.3,1.2,0.3,1.5,0.9c1.5,0.9,2.8,2.1,4,3.2C672.6,68.8,673.1,70.4,673.1,71.9 M665.5,72.4c0-0.9,0-1.5-0.3-2.4   s-0.9-1.2-1.2-1.5s-1.2-0.9-2-0.9c-0.9,0-1.5-0.3-2.4-0.3h-4v9.6h4.4c2.1,0,3.2-0.3,4.4-0.9C665.1,75.5,665.5,74,665.5,72.4"/>
	<path class="st0" d="M698.6,94l-2.8-7.6h-11.2l-2.8,7.6h-7.1L687,62.4h7.6L706.3,94H698.6z M690.7,67.9l-4,13.2h8L690.7,67.9z"/>
	<polygon class="st0" points="731.8,67.6 722.9,67.6 722.9,94 716.2,94 716.2,67.6 707,67.6 707,62.4 733,62.4  "/>
	<rect x="738.9" y="62.4" class="st0" width="7.2" height="31.1"/>
	<path class="st0" d="M775.2,94l-2.8-7.6h-11.1l-2.8,7.6h-7.2l12.3-31.6h7.6L783,94H775.2z M766.9,67.9l-4,13.2h8L766.9,67.9z"/>
	<path class="st1" d="M204.4,137.6v12.8H200v-13.1l-11.2-20h5.1l6.5,12.8c0.3,0.8,0.8,1.1,0.8,1.8c0.3,0.8,0.3,1.1,0.8,1.4   c0,0.3,0.3,0.3,0.3,0.3c0.8-1.4,1.4-2.9,1.8-3.6l6.5-12.8h4.7L204.4,137.6z"/>
	<path class="st1" d="M240,129.3h-2.5v13.1c0,1.1,0,1.8,0,2.5c0,0.8,0,1.1,0.3,1.4c0,0.3,0.3,0.8,0.8,1.1c0.3,0.3,0.8,0.8,1.1,0.8   l-2.2,2.5c-1.4-0.3-2.5-1.4-3.3-2.5c-0.3-0.8-0.3-1.1-0.8-1.8c0-0.8,0-1.1,0-2.2v-15.6h-9v21h-4v-21h-3.3v-2.2h24L240,129.3z"/>
	<path class="st1" d="M266.8,138.7c0,2.2-0.3,3.6-0.8,5.1c-0.8,1.4-1.4,2.9-2.2,4c-1.1,1.1-2.2,1.9-3.3,2.2   c-1.4,0.3-2.9,0.8-4.4,0.8c-3.6,0-6.2-1.1-8-3.3c-1.9-2.2-2.9-5.5-2.9-9.5s1.1-6.9,2.9-9.1c1.8-2.2,4.4-3.3,8-3.3   c2.2,0,4,0.3,5.1,1.1c1.4,0.8,2.5,1.9,3.3,2.9c0.8,1.1,1.4,2.2,1.8,3.6C266.5,135.1,266.8,137,266.8,138.7 M262.5,139   c0-3.3-0.3-5.8-1.1-7.3c-0.8-1.1-1.4-1.8-2.2-2.2c-1.1-0.3-2.2-0.8-2.9-0.8c-1.1,0-2.2,0.3-3.3,0.8c-1.1,0.3-1.8,1.1-2.2,1.9   c-0.3,0.8-0.8,1.4-0.8,2.5c-0.3,1.1-0.3,2.2-0.3,3.6c0,1.9,0,3.3,0.3,4.7s0.8,2.5,1.1,3.3s1.1,1.4,2.2,1.8c1.1,0.3,1.8,0.8,2.9,0.8   c1.4,0,2.5-0.3,3.3-1.1c1.1-0.8,1.8-1.4,2.2-2.5c0.3-0.8,0.3-1.4,0.8-2.2C262.2,141.2,262.5,140.1,262.5,139"/>
	<path class="st1" d="M292.6,142.7c0,1.1-0.3,2.2-0.8,3.3c-0.3,1.1-1.1,1.8-1.8,2.5c-0.8,0.8-1.8,1.4-2.9,1.8   c-1.1,0.3-2.5,0.8-4,0.8c-3.3,0-5.5-0.8-6.9-2.2s-2.2-3.3-2.2-5.8v-16.7l4-0.8v16.7c0,0.8,0,1.9,0.3,2.5c0.3,0.8,0.3,1.1,0.8,1.9   c0.3,0.3,1.1,0.8,1.8,1.1c0.7,0.3,1.4,0.3,2.5,0.3c1.8,0,3.3-0.3,4-1.4c0.8-1.1,1.4-2.2,1.4-4.4v-16l4-0.8L292.6,142.7L292.6,142.7   z"/>
	<path class="st1" d="M320.6,138.4c0,1.8,0,3.6-0.3,4.7c-0.3,1.1-0.8,2.5-1.4,3.6c-0.8,1.4-2.2,2.5-3.3,3.3   c-1.4,0.8-2.9,1.1-4.4,1.1c-1.4,0-2.5-0.3-3.6-0.8c-1.1-0.3-2.2-1.1-3.3-2.2v11.7l-4,0.8v-23.5c0-3.6,0.8-6.2,2.5-8   c1.8-1.9,4.4-2.9,8-2.9c3.3,0,5.8,1.1,7.6,3.3C319.5,131.1,320.6,134.4,320.6,138.4 M316.2,138.7c0-3.3-0.3-5.4-1.4-7.3   c-1.1-1.9-2.9-2.5-5.1-2.5c-1.8,0-3.3,0.8-4.4,1.9c-1.1,1.1-1.4,3.3-1.4,5.4v8.4c1.9,2.2,4,3.3,6.2,3.3c1.1,0,2.2-0.3,3.3-0.8   c1.1-0.3,1.8-1.1,2.2-2.2c0.3-0.8,0.8-1.8,0.8-2.5C316.2,141.2,316.2,140.1,316.2,138.7"/>
	<path class="st1" d="M337.6,150.4v9.5l-4,0.8v-10.1l-6.5-19.2c-0.3-1.4-1.1-1.9-1.4-1.9s-0.8,0-1.1,0.3l-1.1-2.5   c1.1-0.8,2.2-1.1,3.6-1.1c1.1,0,2.2,0.3,2.5,0.8c0.8,0.8,1.1,1.4,1.4,2.5l4,12.7c0.3,0.8,0.3,1.4,0.8,1.9c0,0.3,0.3,1.1,0.3,1.8   l0,0c0-0.8,0.3-1.4,0.3-1.8c0-0.8,0.3-1.1,0.3-1.9l5.1-15.6h4L337.6,150.4z"/>
	<path class="st1" d="M370.3,147.8c-1.1,1.1-2.5,1.9-4.4,2.2s-3.6,0.8-5.8,0.8c-1.1,0-2.2,0-3.3-0.3c-1.1-0.3-2.2-0.8-3.3-1.1   s-1.8-1.1-2.5-2.2c-0.8-0.8-1.1-2.2-1.1-3.6c0-1.8,0.8-3.3,1.8-4.4c1.1-1.1,2.5-1.9,4.4-2.2c-1.8-0.3-2.9-1.1-3.6-2.2   c-0.8-1.1-1.1-2.2-1.1-3.3s0.3-1.9,0.8-2.5c0.3-0.8,1.1-1.4,1.8-2.2c0.7-0.8,1.8-1.1,2.9-1.4s2.2-0.3,3.6-0.3   c3.6,0,6.9,1.1,9.5,3.3l-1.8,2.2c-1.1-0.8-2.2-1.4-3.6-1.9c-1.4-0.3-2.5-0.8-4-0.8c-1.4,0-2.9,0.3-3.6,1.1   c-0.8,0.8-1.4,1.4-1.4,2.5c0,0.8,0,1.4,0.3,1.9c0.3,0.8,0.8,1.1,1.1,1.1c0.3,0.3,1.1,0.8,1.9,0.8s1.4,0.3,1.8,0.3h2.9v2.9h-2.9   c-0.8,0-1.4,0-2.2,0.3c-0.8,0-1.4,0.3-2.2,0.8c-0.8,0.4-1.1,0.8-1.4,1.4c-0.3,0.8-0.8,1.4-0.8,2.2s0.3,1.4,0.8,2.2   c0.3,0.8,0.8,1.1,1.4,1.4c0.8,0.3,1.1,0.8,1.8,0.8c0.8,0,1.4,0.3,2.2,0.3c3.6,0,6.2-0.8,8.4-2.2L370.3,147.8z"/>
	<path class="st1" d="M383.5,150.4c-0.3,0.3-0.8,0.3-1.1,0.3c-0.3,0-0.8,0-1.4,0c-1.1,0-2.2-0.3-2.9-1.1c-0.3-0.3-0.8-0.8-0.8-1.4   c-0.3-0.3-0.3-1.1-0.3-2.2v-14.9c0-1.4-0.3-3.3-0.8-4.7l4-0.8c0.3,1.8,0.8,4,0.8,5.8v14.2c0,1.1,0,1.4,0.3,1.9   c0.3,0.3,0.8,0.3,1.1,0.3h0.3L383.5,150.4z M379.3,123.1l-1.8-0.8l3.6-10.1l3.6,1.4L379.3,123.1z"/>
	<path class="st1" d="M409.5,138.7c0,2.2-0.3,3.6-0.8,5.1c-0.8,1.4-1.4,2.9-2.2,4c-1.1,1.1-2.2,1.9-3.3,2.2   c-1.4,0.3-2.9,0.8-4.4,0.8c-3.6,0-6.2-1.1-8-3.3c-1.9-2.2-2.9-5.5-2.9-9.5s1.1-6.9,2.9-9.1c1.8-2.2,4.4-3.3,8-3.3   c2.2,0,4,0.3,5.1,1.1c1.4,0.8,2.5,1.9,3.3,2.9c0.8,1.1,1.4,2.2,1.9,3.6C409.1,135.1,409.5,137,409.5,138.7 M405.2,139   c0-3.3-0.3-5.8-1.1-7.3c-0.8-1.1-1.4-1.8-2.2-2.2c-1.1-0.3-2.2-0.8-2.9-0.8c-1.1,0-2.2,0.3-3.3,0.8c-1.1,0.3-1.9,1.1-2.2,1.9   c-0.3,0.8-0.8,1.4-0.8,2.5c-0.3,1.1-0.3,2.2-0.3,3.6c0,1.9,0,3.3,0.3,4.7s0.8,2.5,1.1,3.3s1.1,1.4,2.2,1.8c1.1,0.3,1.8,0.8,2.9,0.8   c1.4,0,2.5-0.3,3.3-1.1c1.1-0.8,1.8-1.4,2.2-2.5c0.3-0.8,0.3-1.4,0.8-2.2C404.8,141.2,405.2,140.1,405.2,139"/>
	<polygon class="st1" points="446.5,150.4 446.5,120.6 432.3,120.6 432.3,150.4 428.5,150.4 428.5,117.3 451,117.3 451,150.4  "/>
	<path class="st1" d="M479,151c-0.8-0.3-1.4-0.8-2.2-1.4c-0.8-0.7-1.1-1.4-1.1-2.2c-1.1,1.1-2.5,2.2-3.6,2.5c-1.1,0.8-2.5,0.8-4,0.8   c-1.1,0-2.2,0-3.3-0.3c-0.8-0.3-1.8-0.8-2.5-1.4c-1.1-1.1-2.2-2.2-2.9-4c-0.8-1.4-1.1-3.6-1.1-6.2c0-2.2,0.3-4.4,0.8-5.8   c0.3-1.4,1.1-2.9,1.8-3.6c1.1-1.1,2.2-2.2,3.3-2.9c1.4-0.8,2.5-1.1,4.4-1.1c1.4,0,2.5,0.3,3.6,0.8c1.1,0.3,2.2,1.4,3.3,2.5   c0,0,0-0.3,0-0.8c0-0.4,0-0.3,0-0.8c0-0.3,0-0.3,0-0.8c0-0.3,0-0.3,0-0.8h4c-0.3,2.2-0.8,4-0.8,6.2v9.8c0,1.1,0,1.8,0,2.5   c0,0.8,0,1.1,0.3,1.4c0,0.3,0.3,0.8,0.8,1.1c0.3,0.3,0.8,0.8,1.1,0.8L479,151z M475.2,132.6c-0.8-1.1-1.4-1.9-2.9-2.5   c-1.4-0.8-2.5-1.1-3.6-1.1s-2.2,0.3-2.9,0.8c-0.8,0.3-1.4,1.1-2.2,2.2c-0.3,0.3-0.3,0.8-0.8,1.1c0,0.3-0.3,0.8-0.3,1.4   c0,0.3,0,1.1-0.3,1.4s0,1.4,0,2.2c0,1.4,0,2.5,0.3,3.3c0,0.8,0.3,1.9,0.8,2.2c0.3,0.8,0.3,1.1,0.8,1.4c0.3,0.3,0.8,0.8,0.8,1.1   c0.8,0.3,1.1,0.8,1.8,1.1c0.8,0.3,1.4,0.3,2.5,0.3c1.4,0,2.5-0.3,3.6-1.1s1.8-1.4,2.5-2.5L475.2,132.6L475.2,132.6z"/>
	<path class="st1" d="M494.8,150.4c-0.3,0.3-0.8,0.3-1.1,0.3c-0.3,0-0.8,0-1.4,0c-1.1,0-2.2-0.3-2.9-1.1c-0.3-0.3-0.8-0.8-0.8-1.4   c-0.3-0.3-0.3-1.1-0.3-2.2v-14.9c0-1.4-0.3-3.3-0.8-4.7l4-0.8c0.3,1.8,0.8,4,0.8,5.8v14.2c0,1.1,0,1.4,0.3,1.9   c0.3,0.3,0.8,0.3,1.1,0.3h0.3L494.8,150.4z"/>
	<path class="st1" d="M521,138.7c0,2.2-0.3,3.6-0.8,5.1c-0.8,1.4-1.4,2.9-2.2,4c-1.1,1.1-2.2,1.9-3.3,2.2c-1.4,0.3-2.9,0.8-4.4,0.8   c-3.6,0-6.2-1.1-8-3.3c-1.9-2.2-2.9-5.5-2.9-9.5c0-1.9,0.3-3.3,0.8-4.7c0.3-1.4,1.1-2.5,2.2-3.6c0.8-1.1,2.2-1.8,3.3-2.5   c1.4-0.8,2.9-0.8,4.4-0.8c-1.4-1.1-2.5-2.2-4-3.3c-1.1-1.1-2.5-1.9-4-2.5l0.8-3.3h16l-0.8,3.3h-10.6c1.4,0.8,2.9,1.9,4.4,2.9   c1.4,1.1,2.5,2.2,3.6,3.3c1.4,1.4,2.9,3.3,3.6,5.5C520.7,134,521,136.2,521,138.7 M516.7,139c0-1.1,0-2.2-0.3-3.3   c0-1.1-0.3-2.2-0.8-3.3c-0.3-1.1-1.1-1.9-1.8-2.2c-0.8-0.3-2.2-0.8-3.6-0.8s-2.5,0.3-3.3,0.8c-0.8,0.3-1.4,1.1-1.9,1.9   c-0.3,0.8-0.8,1.8-0.8,2.5c0,1.1-0.3,1.8-0.3,2.9c0,1.8,0,3.3,0.3,4.7s0.8,2.5,1.1,3.3s1.1,1.4,2.2,1.9c1.1,0.4,1.8,0.8,2.9,0.8   c1.4,0,2.5-0.3,3.3-1.1c1.1-0.8,1.9-1.4,2.2-2.5c0.3-0.8,0.3-1.4,0.8-2.2C516.3,141.2,516.7,140.1,516.7,139"/>
	<path class="st1" d="M546.8,147.8c-1.1,1.1-2.5,1.9-4.4,2.2c-1.8,0.3-3.6,0.8-5.8,0.8c-1.1,0-2.2,0-3.3-0.3s-2.2-0.8-3.3-1.1   s-1.8-1.1-2.5-2.2c-0.8-0.8-1.1-2.2-1.1-3.6c0-1.8,0.8-3.3,1.9-4.4c1.1-1.1,2.5-1.9,4.4-2.2c-1.9-0.3-2.9-1.1-3.6-2.2   c-0.8-0.8-1.1-2.2-1.1-3.3s0.3-1.9,0.8-2.5c0.4-0.7,1.1-1.4,1.8-2.2c0.8-0.8,1.9-1.1,2.9-1.4c1.1-0.3,2.2-0.3,3.6-0.3   c3.6,0,6.9,1.1,9.5,3.3l-1.9,2.2c-1.1-0.8-2.2-1.4-3.6-1.9c-1.4-0.4-2.5-0.8-4-0.8s-2.9,0.3-3.6,1.1c-0.8,0.8-1.4,1.4-1.4,2.5   c0,0.8,0,1.4,0.3,1.9c0.3,0.8,0.8,1.1,1.1,1.1c0.3,0.3,1.1,0.8,1.8,0.8c0.8,0,1.4,0.3,1.9,0.3h2.9v2.9h-2.8c-0.8,0-1.4,0-2.2,0.3   c-0.8,0-1.4,0.3-2.2,0.8c-0.8,0.3-1.1,0.8-1.4,1.4c-0.3,0.8-0.8,1.4-0.8,2.2s0.3,1.4,0.8,2.2c0.3,0.8,0.8,1.1,1.4,1.4   c0.8,0.3,1.1,0.8,1.8,0.8c0.8,0,1.4,0.3,2.2,0.3c3.6,0,6.2-0.8,8.4-2.2L546.8,147.8z"/>
	<path class="st1" d="M559.8,150.4c-0.3,0.3-0.8,0.3-1.1,0.3s-0.8,0-1.4,0c-1.1,0-2.2-0.3-2.9-1.1c-0.3-0.3-0.8-0.8-0.8-1.4   c-0.3-0.3-0.3-1.1-0.3-2.2v-14.9c0-1.4-0.3-3.3-0.8-4.7l4-0.8c0.3,1.8,0.8,4,0.8,5.8v14.2c0,1.1,0,1.4,0.3,1.9   c0.3,0.3,0.8,0.3,1.1,0.3h0.3L559.8,150.4z M555.8,123.1l-1.9-0.8l3.6-10.1l3.6,1.4L555.8,123.1z"/>
	<path class="st1" d="M585.2,151c-0.8-0.3-1.4-0.8-2.2-1.4c-0.8-0.7-1.1-1.4-1.1-2.2c-1.1,1.1-2.5,2.2-3.6,2.5   c-1.1,0.8-2.5,0.8-4,0.8c-1.1,0-2.2,0-3.3-0.3c-0.8-0.3-1.9-0.8-2.5-1.4c-1.1-1.1-2.2-2.2-2.9-4c-0.8-1.4-1.1-3.6-1.1-6.2   c0-2.2,0.3-4.4,0.8-5.8s1.1-2.9,1.9-3.6c1.1-1.1,2.2-2.2,3.3-2.9c1.4-0.8,2.5-1.1,4.4-1.1c1.4,0,2.5,0.3,3.6,0.8   c1.1,0.8,2.2,1.4,3.3,2.5c0,0,0-0.3,0-0.8c0-0.4,0-0.3,0-0.8c0-0.3,0-0.3,0-0.8c0-0.3,0-0.3,0-0.8h4c-0.3,2.2-0.8,4-0.8,6.2v9.8   c0,1.1,0,1.8,0,2.5c0,0.8,0,1.1,0.3,1.4c0,0.3,0.3,0.8,0.8,1.1c0.3,0.3,0.8,0.8,1.1,0.8L585.2,151z M581.2,132.6   c-0.8-1.1-1.4-1.9-2.9-2.5c-1.4-0.8-2.5-1.1-3.6-1.1s-2.2,0.3-2.9,0.8c-0.8,0.3-1.4,1.1-2.2,2.2c-0.3,0.3-0.3,0.8-0.8,1.1   c0,0.3-0.3,0.8-0.3,1.4c0,0.3,0,1.1-0.3,1.4c-0.3,0.3,0,1.4,0,2.2c0,1.4,0,2.5,0.3,3.3c0,0.8,0.3,1.9,0.3,2.2   c0.3,0.8,0.3,1.1,0.8,1.4c0.4,0.3,0.8,0.8,0.8,1.1c0.8,0.3,1.1,0.8,1.9,1.1s1.4,0.3,2.5,0.3c1.4,0,2.5-0.3,3.6-1.1s1.9-1.4,2.5-2.5   L581.2,132.6L581.2,132.6z"/>
	<path class="st1" d="M610.8,152.6c0,0.8,0,1.4-0.3,2.2s-0.3,1.4-0.8,1.9c-0.3,0.8-0.8,1.1-1.1,1.8c-0.3,0.8-1.1,1.1-1.4,1.8   l-2.5-1.4c0.3-0.3,0.8-1.1,1.1-1.4c0.3-0.3,0.8-0.8,0.8-1.1c0.3-0.3,0.3-0.8,0.3-1.1s0-1.1,0-1.4c0-0.8,0-1.1-0.3-1.8   c-0.3-0.3-0.8-0.8-1.1-1.1s-0.8-0.3-1.4-0.8c-0.8,0-1.1-0.3-1.9-0.3c-3.3-0.3-5.4-1.4-7.3-3.3c-1.4-1.8-2.5-4.4-2.5-7.6   c0-1.4,0-2.5,0.3-3.6s0.3-2.2,0.8-2.9c0.3-0.8,0.8-1.4,1.1-2.2s1.1-1.1,1.4-1.9c1.9-1.9,4.4-2.9,6.9-2.9c1.4,0,2.9,0.3,4,0.8   c1.1,0.3,2.2,1.1,2.9,1.9l-2.2,2.5c-0.8-0.8-1.8-1.1-2.2-1.4c-0.3-0.3-1.4-0.3-2.5-0.3s-1.9,0.3-2.9,0.8c-0.8,0.3-1.4,1.1-2.2,1.9   c-0.3,0.8-0.8,1.9-1.1,3.3c-0.3,1.1-0.3,2.5-0.3,4s0,2.5,0.3,3.3s0.8,1.4,1.4,2.2c0.8,0.3,1.1,1.1,1.9,1.1c0.8,0.3,1.4,0.3,2.5,0.8   c1.1,0.3,2.2,0.3,2.9,0.8c0.8,0.3,1.8,0.8,2.5,1.1s1.1,1.1,1.4,1.8C610.8,150.4,610.8,151.5,610.8,152.6"/>
	<path class="st1" d="M648.5,149.3l-10.9-13.1v13.1h-4v-18.9c0-1.4-0.3-3.3-0.8-4.7l4-1.1c0.3,1.9,0.8,4,0.8,5.8v5.8l10.1-10.9h5.1   l-10.6,10.9l11.7,13.1L648.5,149.3L648.5,149.3z"/>
	<path class="st1" d="M678.2,150c-0.8-0.3-1.4-0.8-2.2-1.4c-0.8-0.8-1.1-1.4-1.1-2.2c-1.1,1.1-2.5,2.2-3.6,2.5   c-1.1,0.8-2.5,0.8-4,0.8c-1.1,0-2.2,0-3.3-0.3c-0.8-0.3-1.9-0.8-2.5-1.4c-1.1-1.1-2.2-2.2-2.9-3.6c-0.8-1.4-1.1-3.6-1.1-6.2   c0-2.2,0.3-4.4,0.8-5.8c0.3-1.4,1.1-2.9,1.8-3.6c1.1-1.1,2.2-2.2,3.3-2.9c1.4-0.8,2.5-1.1,4.4-1.1c1.4,0,2.5,0.3,3.6,0.8   c1.1,0.3,2.2,1.4,3.3,2.5c0,0,0-0.3,0-0.8c0-0.3,0-0.3,0-0.8c0-0.3,0-0.3,0-0.8c0-0.3,0-0.3,0-0.8h4c-0.3,2.2-0.8,4-0.8,6.2v9.8   c0,1.1,0,1.9,0,2.5c0,0.8,0,1.1,0.3,1.4c0,0.3,0.3,0.8,0.8,1.1c0.3,0.3,0.8,0.8,1.1,0.8L678.2,150z M674.2,131.5   c-0.8-1.1-1.4-1.9-2.9-2.5c-1.4-0.8-2.5-1.1-3.6-1.1s-2.2,0.3-2.9,0.8c-0.8,0.3-1.4,1.1-2.2,2.2c-0.3,0.3-0.3,0.8-0.8,1.1   c0,0.3-0.3,0.8-0.3,1.4c0,0.3,0,1.1-0.3,1.4c0,0.8,0,1.4,0,2.2c0,1.4,0,2.5,0.3,3.3c0,0.8,0.3,1.9,0.8,2.2s0.3,1.1,0.8,1.4   c0.3,0.3,0.8,0.8,0.8,1.1c0.8,0.3,1.1,0.8,1.9,1.1s1.4,0.3,2.5,0.3c1.4,0,2.5-0.3,3.6-1.1s1.8-1.4,2.5-2.5L674.2,131.5L674.2,131.5   z"/>
	<path class="st1" d="M693.8,149.3c-0.3,0.3-0.8,0.3-1.1,0.3s-0.8,0-1.4,0c-1.1,0-2.2-0.3-2.9-1.1c-0.3-0.3-0.8-0.8-0.8-1.4   c0-0.7-0.3-1.1-0.3-2.2V130c0-1.4-0.3-3.3-0.8-4.7l4-0.8c0.3,1.9,0.8,4,0.8,5.8v14.2c0,1.1,0,1.4,0.3,1.9c0.3,0.3,0.8,0.3,1.1,0.3   h0.3L693.8,149.3z"/>
	<path class="st1" d="M739.2,133.3c0,1.9-0.3,4-0.8,5.8c-0.8,1.9-1.4,3.6-2.5,5.4c-1.1,1.9-2.5,2.9-4.4,4s-4,1.4-6.5,1.4   s-4.7-0.3-6.5-1.4c-1.8-1.1-3.3-2.5-4.4-4c-1.1-1.8-2.2-3.6-2.5-5.4c-0.8-2.2-0.8-4-0.8-6.2c0-2.5,0.3-4.7,1.1-6.9   c0.8-2.2,1.9-4,2.9-5.5c1.1-1.4,2.9-2.5,4.4-3.6c1.9-0.8,3.6-1.1,5.8-1.1c1.8,0,3.3,0.3,4.7,0.8c1.4,0.3,2.5,1.1,3.6,2.2   c1.1,0.8,2.2,1.9,2.9,2.9c0.8,1.1,1.4,2.5,1.8,3.6c0.3,1.4,0.8,2.5,1.1,4C739.2,130.8,739.2,132.2,739.2,133.3 M734.5,130.4   c0-1.4-0.3-2.5-0.8-4c-0.3-1.4-1.1-2.5-1.9-3.6c-0.8-1.1-1.9-2.2-2.9-2.5c-1.1-0.3-2.5-1.1-4.4-1.1s-3.3,0.3-4.7,1.1   s-2.2,1.4-2.9,2.5c-0.8,1.1-1.1,2.2-1.4,3.6c-0.3,1.4-0.8,2.5-0.8,4H734.5L734.5,130.4z M734.5,133.7h-19.6c0,1.4,0.3,2.9,0.8,4.4   c0.3,1.4,0.8,2.9,1.4,4.4c0.8,1.4,1.8,2.2,2.9,3.3c1.1,0.8,2.9,1.1,4.7,1.1s3.6-0.3,4.7-1.4c1.1-1.1,2.2-1.8,2.9-3.3   c0.8-1.4,1.1-2.5,1.4-4.4C734.5,136.5,734.5,135.4,734.5,133.7L734.5,133.7z"/>
	<path class="st1" d="M766,137.3c0,1.8,0,3.6-0.3,4.7c-0.3,1.1-0.8,2.5-1.4,3.6c-0.8,1.4-2.2,2.5-3.3,3.3c-1.4,0.8-2.9,1.1-4.4,1.1   s-2.5-0.3-3.6-0.8c-1.1-0.4-2.2-1.1-3.3-2.2v11.7l-4,0.8V136c0-3.6,0.8-6.2,2.5-8c1.9-1.9,4.4-2.9,8-2.9c3.3,0,5.8,1.1,7.6,3.3   C765.2,130,766,133.3,766,137.3 M762,137.6c0-3.3-0.3-5.4-1.4-7.3c-1.1-1.9-2.9-2.5-5.1-2.5c-1.9,0-3.3,0.8-4.4,1.8   c-1.1,1.1-1.4,3.3-1.4,5.5v8.4c1.9,2.2,4,3.3,6.2,3.3c1.1,0,2.2-0.3,3.3-0.8c1.1-0.8,1.9-1.1,2.2-2.2c0.3-0.8,0.8-1.9,0.8-2.5   C762,140.1,762,139,762,137.6"/>
	<path class="st1" d="M791.8,150c-0.8-0.3-1.4-0.8-1.9-1.1c-0.8-0.3-1.1-1.1-1.4-1.4c-0.3-0.8-0.3-1.1-0.8-1.9c0-0.8,0-1.1,0-2.2   v-10.6c0-0.8,0-1.1,0-1.4s0-0.8,0-1.1s0-0.8-0.3-0.8c0-0.3-0.3-0.3-0.3-0.8c-0.8-0.8-1.4-1.1-2.9-1.1c-0.3,0-1.1,0-1.9,0.3   c-0.8,0.3-1.1,0.3-1.8,0.8c-0.8,0.3-1.1,0.8-1.9,1.1s-1.1,0.8-1.4,1.4V149h-4v-18.5c0-1.9-0.3-3.3-1.1-5.1l4-1.1c0,0,0,0.3,0.3,0.8   c0,0.3,0.3,0.8,0.3,1.4c0,0.7,0.3,1.1,0.3,1.9c2.5-2.5,5.1-3.6,8-3.6c1.4,0,2.5,0.3,3.6,1.1c1.1,0.8,1.8,1.4,2.5,2.5   c0.3,0.8,0.8,1.9,0.8,2.9V142c0,1.1,0,1.8,0,2.5c0,0.8,0,1.1,0.3,1.4c0,0.3,0.3,0.8,0.8,1.1c0.3,0.3,0.8,0.8,1.1,0.8L791.8,150z"/>
	<path class="st1" d="M822.2,128.2h-4.7c1.1,1.1,1.8,2.2,2.5,3.6c0.8,1.4,0.8,3.3,0.8,5.5s-0.3,3.6-0.8,5.1   c-0.8,1.4-1.4,2.9-2.2,3.6c-1.1,1.1-2.2,1.8-3.3,2.2c-1.4,0.3-2.9,0.8-4.4,0.8c-3.6,0-6.2-1.1-8-3.3c-1.9-2.2-2.9-5.4-2.9-9.5   c0-1.9,0.3-3.3,0.8-4.7c0.3-1.4,1.1-2.5,2.2-3.6c1.1-1.1,2.2-1.9,3.3-2.5c1.4-0.8,2.9-0.8,4.4-0.8h13.4L822.2,128.2z M816.5,138.1   c0-1.1,0-2.2,0-3.3s-0.3-2.2-0.8-3.3c-0.3-1.1-1.1-1.9-1.8-2.2c-0.8-0.8-2.2-0.8-3.6-0.8c-1.4,0-2.5,0.3-3.3,0.8   c-0.8,0.3-1.4,1.1-1.9,1.9c-0.3,0.8-0.8,1.9-0.8,2.5c0,1.1-0.3,2.2-0.3,2.9c0,1.9,0,3.3,0.3,4.7s0.8,2.5,1.1,3.3s1.1,1.4,2.2,1.9   c1.1,0.4,1.8,0.8,2.9,0.8c1.4,0,2.5-0.3,3.3-1.1c1.1-0.8,1.8-1.4,2.2-2.5c0.3-0.8,0.3-1.4,0.8-2.2   C816.5,140.1,816.5,139,816.5,138.1"/>
	<path class="st1" d="M843.7,149.3l-10.9-13.1v13.1h-4v-18.9c0-1.4-0.3-3.3-0.8-4.7l4-1.1c0.3,1.9,0.8,4,0.8,5.8v5.8l10.1-10.9h5.1   l-10.6,10.9l11.7,13.1L843.7,149.3L843.7,149.3z"/>
	<path class="st1" d="M872.3,147.1c-1.1,1.1-2.5,1.8-4.4,2.2c-1.8,0.3-3.6,0.8-5.8,0.8c-1.1,0-2.2,0-3.3-0.3s-2.2-0.8-3.3-1.1   c-1.1-0.8-1.8-1.1-2.5-2.2c-0.8-0.8-1.1-2.2-1.1-3.6c0-1.9,0.8-3.3,1.9-4.4c1.1-1.1,2.5-1.9,4.4-2.2c-1.9-0.3-2.9-1.1-3.6-2.2   c-0.8-0.8-1.1-2.2-1.1-3.3s0.3-1.9,0.8-2.5c0.3-0.8,1.1-1.4,1.9-2.2s1.8-1.1,2.9-1.4c1.1-0.3,2.2-0.3,3.6-0.3   c3.6,0,6.9,1.1,9.5,3.3l-1.9,2.2c-1.1-0.8-2.2-1.4-3.6-1.9c-1.4-0.3-2.5-0.8-4-0.8c-1.4,0-2.9,0.3-3.6,1.1   c-0.8,0.8-1.4,1.4-1.4,2.5c0,0.8,0,1.4,0.3,1.9c0.3,0.3,0.8,1.1,1.1,1.1c0.3,0.3,1.1,0.3,1.9,0.8c0.8,0,1.4,0.3,1.8,0.3h2.9v2.9   h-2.9c-0.8,0-1.4,0-2.2,0.3c-0.8,0-1.4,0.3-2.2,0.8c-0.8,0.3-1.1,0.8-1.4,1.4c-0.3,0.8-0.3,1.4-0.3,2.2s0.3,1.4,0.8,2.2   c0.3,0.8,0.8,1.1,1.4,1.4c0.8,0.3,1.1,0.8,1.8,0.8s1.4,0.3,2.2,0.3c3.6,0,6.2-0.8,8.4-2.2L872.3,147.1z"/>
	<path class="st1" d="M897.5,141.7c0,1.1-0.3,2.2-0.8,3.3c-0.3,1.1-1.1,1.8-1.8,2.5c-0.7,0.8-1.9,1.4-2.9,1.8   c-1.1,0.3-2.5,0.8-4,0.8c-3.3,0-5.5-0.8-6.9-2.2s-2.2-3.3-2.2-5.8v-16.7l4-0.8v16.7c0,0.8,0,1.8,0.3,2.5c0.3,0.8,0.3,1.1,0.8,1.8   c0.3,0.3,1.1,0.8,1.8,1.1s1.4,0.3,2.5,0.3c1.9,0,3.3-0.3,4-1.4c0.8-1.1,1.4-2.2,1.4-4.4v-15.9l4-0.8L897.5,141.7L897.5,141.7z"/>
	<path class="st1" d="M923.8,150.4c-0.8-0.8-1.4-1.1-1.8-1.9c-0.3-0.8-0.8-1.1-0.8-2.2c-1.9,2.5-4.7,3.6-8,3.6c-0.8,0-1.1,0-1.8-0.3   c-0.8,0-1.1-0.3-1.4-0.8v9.5l-4,0.8v-33.8l4-0.8v17.4c0,1.1,0,2.2,0.3,2.5c0.3,0.8,0.8,1.1,1.1,1.4c0.3,0.3,0.8,0.3,1.4,0.8   c0.8,0.3,1.1,0.3,1.8,0.3c1.1,0,2.5-0.3,3.6-1.1s2.2-1.9,2.9-3.3v-17.1l4-0.8v17c0,0.8,0,1.4,0,2.2s0,1.1,0.3,1.4   c0,0.3,0.3,0.8,0.3,1.1c0.3,0.3,0.3,0.8,1.1,1.1L923.8,150.4z"/>
	<path class="st1" d="M953,150c-0.8-0.3-1.4-0.8-2.2-1.4c-0.8-0.8-1.1-1.4-1.1-2.2c-1.1,1.1-2.5,2.2-3.6,2.5c-1.1,0.8-2.5,0.8-4,0.8   c-1.1,0-2.2,0-3.3-0.3c-0.8-0.3-1.8-0.8-2.5-1.4c-1.1-1.1-2.2-2.2-2.9-3.6c-0.8-1.4-1.1-3.6-1.1-6.2c0-2.2,0.3-4.4,0.8-5.8   c0.3-1.4,1.1-2.9,1.9-3.6c1.1-1.1,2.2-2.2,3.3-2.9c1.4-0.8,2.5-1.1,4.4-1.1c1.4,0,2.5,0.3,3.6,0.8c1.1,0.8,2.2,1.4,3.3,2.5   c0,0,0-0.3,0-0.8c0-0.3,0-0.3,0-0.8c0-0.3,0-0.3,0-0.8c0-0.3,0-0.3,0-0.8h4c-0.3,2.2-0.8,4-0.8,6.2v9.8c0,1.1,0,1.9,0,2.5   c0,0.8,0,1.1,0.3,1.4c0,0.3,0.3,0.8,0.8,1.1c0.3,0.3,0.8,0.8,1.1,0.8L953,150z M949.2,131.5c-0.8-1.1-1.4-1.9-2.9-2.5   c-1.4-0.7-2.5-1.1-3.6-1.1s-2.2,0.3-2.9,0.8c-0.8,0.3-1.4,1.1-2.2,2.2c-0.3,0.3-0.3,0.8-0.8,1.1c0,0.3-0.3,0.8-0.3,1.4   c0,0.3,0,1.1-0.3,1.4c-0.3,0.3,0,1.4,0,2.2c0,1.4,0,2.5,0.3,3.3c0,0.8,0.3,1.9,0.8,2.2c0.3,0.3,0.3,1.1,0.8,1.4   c0.3,0.3,0.8,0.8,0.8,1.1c0.8,0.3,1.1,0.8,1.9,1.1s1.4,0.3,2.5,0.3c1.4,0,2.5-0.3,3.6-1.1s1.8-1.4,2.5-2.5L949.2,131.5L949.2,131.5   z M943.8,122l-1.9-0.8l3.6-10.1l3.6,1.4L943.8,122z"/>
	<path class="st1" d="M975.5,128.2h-6.2v15.3c0,1.4,0.3,2.2,0.8,2.9c0.3,0.3,1.4,0.8,2.5,0.8c0.8,0,1.1,0,1.4,0   c0.3,0,0.8-0.3,1.1-0.3l0.8,2.5c-1.4,0.8-2.9,1.1-4.4,1.1c-0.8,0-1.1,0-1.8,0c-0.3,0-1.1-0.3-1.4-0.3c-0.8-0.3-1.4-1.1-1.9-1.8   c-0.3-0.8-0.8-1.9-0.8-2.9V129H959v-3h18.2L975.5,128.2z"/>
	<path class="st1" d="M1009.5,140.1c0,3.3-0.8,5.4-2.2,7.3c-1.4,1.8-3.6,2.5-6.2,2.5c-1.1,0-2.5-0.3-3.6-1.1s-1.9-2.2-2.5-3.6   c-0.8,1.4-1.4,2.5-2.5,3.6c-1.1,0.8-2.2,1.1-3.6,1.1c-2.9,0-4.7-0.8-6.2-2.5c-1.4-1.9-2.2-4-2.2-7.3c0-1.8,0-3.3,0.3-4.7   s0.8-2.9,1.4-4.4c0.7-1.5,1.1-2.5,2.2-3.6c0.8-1.1,1.4-2.2,2.5-2.9l2.2,1.1c-1.1,1.8-2.2,3.6-2.9,6.2c-0.8,2.5-1.1,4.7-1.1,7.3   s0.3,4.4,1.1,5.8c0.8,1.4,1.8,2.2,3.3,2.2c0.8,0,1.1,0,1.4-0.3c0.3-0.3,0.8-0.8,1.1-1.1s0.8-1.1,0.8-1.8c0.3-0.8,0.3-1.4,0.3-2.2   v-9.5h4v8.7c0,0.8,0,1.4,0.3,2.2c0,0.8,0.3,1.4,0.8,1.8c0.3,0.3,0.8,1.1,1.1,1.1c0.3,0.3,1.1,0.3,1.9,0.3c1.4,0,2.5-0.8,3.3-2.2   s1.1-3.3,1.1-5.8c0-1.4,0-2.5-0.3-3.6s-0.8-2.5-1.1-3.6s-0.8-2.2-1.4-3.3c-0.3-1.1-1.1-1.9-1.4-2.5l1.9-1.4   c0.8,0.8,1.8,1.9,2.5,2.9c0.8,1.1,1.4,2.5,2.2,3.6c0.8,1.4,1.1,2.9,1.4,4.4C1009.2,137,1009.5,138.4,1009.5,140.1"/>
	<path class="st1" d="M1025.9,149.6h-4l-9-24l4-0.8l5.8,16.3c0.3,0.8,0.3,1.4,0.8,1.9c0.3,0.8,0.3,1.1,0.3,1.4s0,0.8,0,0.8l0,0   c0.3-1.4,0.8-2.9,1.1-4l5.8-15.9h4.4L1025.9,149.6z"/>
	<path class="st2" d="M48.6,35.7c0.7,0,1,0,1.3-0.3s0.3-0.3,0.3-0.7v-0.3c0-0.7,0-1-0.7-1.3c-0.3-0.3-0.7-0.7-1.3-0.7   c-0.3,0-1,0.3-1.3,0.7c-0.3,0.3-0.7,0.7-0.7,1.3c0,0.3,0.3,1,0.7,1.3C47.6,35.7,48,35.7,48.6,35.7"/>
	<path class="st2" d="M19.6,68.7c0.3,0,0.7,0,1-0.3s0.3-0.7,0.3-1s-0.3-0.7-0.3-1c-0.3-0.3-0.7-0.3-1-0.3s-0.7,0.3-1,0.3   c-0.3,0.3-0.3,0.7-0.3,1s0,0.7,0.3,1C18.9,68.4,19.3,68.7,19.6,68.7"/>
	<path class="st2" d="M51.6,45.3c0.3,0,0.3,0,0.3,0c0.3,0,0.7-0.3,0.7-0.3c0.3-0.3,0.3-0.3,0.3-0.7V44c0-0.3,0-1-0.7-1.3   c-0.3-0.3-0.7-0.7-1.3-0.7c-0.3,0-1,0.3-1.3,0.7c-0.3,0.3-0.7,0.7-0.7,1.3s0.3,1,0.7,1.3c0.3,0.3,0.3,0.3,0.7,0.3   C51.3,45.3,51.3,45.3,51.6,45.3"/>
	<path class="st2" d="M26.9,73c-0.3,0.3-0.7,0.7-0.7,1.3c0,0.7,0,1,0.7,1.3c0.3,0.3,0.3,0.3,0.7,0.3h0.3c0.3,0,0.3,0,0.7,0   c0.3,0,0.7-0.3,0.7-0.3c0.3-0.3,0.7-0.7,0.7-1.3c0-0.3,0-1-0.7-1.3c-0.3-0.3-0.7-0.7-1.3-0.7C27.5,72.3,27.2,72.7,26.9,73"/>
	<path class="st2" d="M7.7,109.3c0.3,0,1-0.3,1.3-0.7l0,0c0.3-0.3,0.7-0.7,0.7-1l0,0c0-0.3,0-1-0.7-1.3C8.7,106,8.7,106,8.3,106H8   c-0.3,0-0.3,0-0.7,0c-0.3,0-0.7,0.3-0.7,0.3c-0.3,0.3-0.7,0.7-0.7,1.3c0,0.3,0,1,0.7,1.3C6.7,109,7.1,109.3,7.7,109.3"/>
	<path class="st2" d="M20.9,150.9h-0.3c-0.3,0-0.3,0-0.7,0c-0.3,0-0.7,0.3-0.7,0.3c-0.3,0.3-0.7,0.7-0.7,1.3c0,0.3,0,1,0.7,1.3   c0.3,0.3,0.7,0.7,1.3,0.7c0.7,0,1-0.3,1.3-0.7c0.3-0.3,0.7-0.7,0.7-1.3c0-0.3,0-1-0.7-1.3C21.2,151.2,21.2,151.2,20.9,150.9"/>
	<path class="st2" d="M133.1,42.6c0.3-0.3,0.7-0.7,0.7-1.3c0-0.3-0.3-1-0.7-1.3c-0.3-0.3-0.7-0.7-1.3-0.7c-0.3,0-1,0.3-1.3,0.7   c-0.3,0.3-0.7,0.7-0.7,1.3c0,0.3,0.3,1,0.7,1.3c0.3,0.3,0.7,0.3,1.3,0.3C132.5,43.3,133.1,43,133.1,42.6"/>
	<path class="st2" d="M134.4,31.4c0.7,0,1,0,1.3-0.3s0.7-0.7,0.7-1.3c0-0.7-0.3-1-0.7-1.3s-0.7-0.7-1.3-0.7c-0.3,0-1,0.3-1.3,0.7   c-0.3,0.3-0.7,0.7-0.7,1.3c0,0.3,0.3,1,0.7,1.3C133.4,31.4,133.8,31.4,134.4,31.4"/>
	<path class="st2" d="M163.1,65.7c0,0,0.3,0,0.7,0c0.3,0,0.3,0,0.7,0s0.7-0.3,0.7-0.3c0.3-0.3,0.7-0.7,0.7-1.3c0-0.3-0.3-1-0.7-1.3   c-0.3-0.3-0.7-0.7-1.3-0.7c-0.3,0-1,0.3-1.3,0.7c-0.3,0.3-0.7,0.7-0.7,1.3s0.3,1,0.7,1.3C162.5,65.4,162.8,65.7,163.1,65.7"/>
	<path class="st2" d="M156.9,74.6c0.3,0,0.3,0,0.7,0c0.3,0,0.7-0.3,0.7-0.3c0.3-0.3,0.7-0.7,0.7-1.3c0-0.3-0.3-1-0.7-1.3   c-0.3-0.3-0.7-0.7-1.3-0.7c-0.3,0-1,0.3-1.3,0.7c-0.3,0.4-0.7,0.7-0.7,1.3c0,0.3,0.3,1,0.7,1.3c0.3,0.3,0.3,0.3,0.7,0.3   S156.9,74.6,156.9,74.6"/>
	<path class="st2" d="M176.3,102.7L176.3,102.7c-0.7,0-1,0.3-1.3,0.7c-0.3,0.3-0.7,0.7-0.7,1.3c0,0.3,0.3,1,0.7,1.3   c0.3,0.3,0.7,0.7,1.3,0.7l0,0c0.3,0,1-0.3,1.3-0.7c0.3-0.3,0.7-0.7,0.7-1.3c0-0.3-0.3-1-0.7-1.3C177.3,103,176.7,102.7,176.3,102.7   "/>
	<path class="st2" d="M167.8,148.9L167.8,148.9c-0.3,0-0.7,0-1,0s-0.7,0.3-0.7,0.3c-0.3,0.3-0.7,0.7-0.7,1.3c0,0.3,0.3,1,0.7,1.3   c0.3,0.3,0.7,0.7,1.3,0.7s1-0.3,1.3-0.7c0.3-0.3,0.7-0.7,0.7-1.3c0-0.3-0.3-1-0.7-1.3C168.4,149.2,168.1,148.9,167.8,148.9"/>
	<path class="st2" d="M119.3,180.9c-0.3,0-0.7,0-1,0.3s-0.3,0.7-0.3,1s0.3,0.7,0.3,1c0.3,0,0.3,0.3,0.7,0.3h0.3c0.3,0,0.3,0,0.7,0   c0,0,0.3,0,0.3-0.3l0,0c0,0,0.3,0,0.3-0.3c0.3-0.3,0.3-0.7,0.3-1s0-0.7-0.3-1C120.2,181.2,119.9,180.9,119.3,180.9"/>
	<path class="st2" d="M69.4,182.9c0-0.3-0.3-1-0.7-1.3c-0.3-0.3-0.7-0.3-1.3-0.3c-0.3,0-1,0-1.3,0.3s-0.7,0.7-0.7,1.3   c0,0.3,0.3,1,0.7,1.3c0.3,0.3,0.7,0.7,1.3,0.7c0.3,0,1-0.3,1.3-0.7C69.1,183.9,69.4,183.2,69.4,182.9"/>
	<path class="st2" d="M57.5,35.7c1.3-0.3,2.6-1,4-1.6c1,0.3,1.7,0.7,2.6,0.7c1,0.3,2,0.3,3,0.7c0.3,0,0.7-0.3,0.7-0.7s0-0.7-0.7-0.7   c-1,0-2-0.3-3-0.7c-0.3,0-0.7-0.3-1-0.3c1.3-0.7,2.3-1,3.6-1.6c1.3,0.7,2.6,1,4.3,1.3c0.3,0,0.7,0,1,0.3c0.3,0,0.7,0,0.7-0.7   c0-0.3,0-0.7-0.7-0.7c-0.3,0-0.7,0-1,0c-1-0.3-2-0.3-3-0.7c0.3,0,0.7-0.3,0.7-0.3c1-0.3,2-1,2.6-1.3c1.7,0.3,5.3,0.7,5.6,0.7   s0.7-0.3,0.7-0.7c0-0.3-0.3-0.7-0.7-0.7c0,0-2.6,0-3.6-0.3c2.3-1.3,4.6-2.6,7.3-4c0.3-0.3,0.3-0.7,0.3-1s-0.7-0.3-1-0.3   c-2.6,1.6-5.3,3-7.6,4.3c0-0.7,0.3-1,0.7-1.6c0,0,0.3-0.3,0.3-0.7c0,0,0-0.3,0.3-0.7c0-0.3,0-0.7-0.3-1s-0.7,0-1,0.3   c0,0-1.3,3.3-1.6,4c-1,0.3-1.7,1-2.6,1.3c-0.3,0-0.7,0.3-1,0.3c0-0.3,0-1,0.3-1.3c0.3-0.7,0.7-1.6,1-2.3c0.3-0.3,0-0.7,0-1   c-0.3-0.3-0.7,0-1,0c-0.7,1-1,1.6-1.3,2.6c-0.3,0.7-0.3,1.6-0.3,2.3c-1.3,0.7-3,1.3-4.3,2c0-0.7,0.3-1.3,0.7-1.6c0.3-1,0.7-2,1.3-3   c0-0.3,0-0.7-0.3-1c-0.3,0-0.7,0-1,0.3c-0.7,1-1,2-1.3,3s-0.7,2-0.7,3c-1.3,0.3-2.3,1-3.6,1.3c-0.3,0-0.7,0.3-0.3,0.7   C56.9,35.7,57.2,35.7,57.5,35.7"/>
	<path class="st2" d="M15.6,105c0-1.6,0.3-3.3,0.3-5.3c1.3-1,2-2.3,2.6-4c0,0,0.7-1.6,1-2s0-0.7,0-1c-0.3,0-0.7,0-1,0.3   c-0.7,0.7-1,1.7-1.3,2.3c-0.7,1-1,2-1.6,2.6c0-1.6,0-3.6-0.3-5.6c1-0.7,1.7-1.7,2.3-3c0.3-0.7,0.7-1.3,1-1.7s0.3-0.7,0-1   s-0.7-0.3-1,0c-0.7,0.7-1,1.3-1.3,2s-0.7,1.3-1.3,2c0-1.6-0.3-3.3-0.3-4.6c1-1,2-4,2.6-4.6c0.3-0.3,0-0.7,0-1c-0.3-0.3-0.7,0-1,0   c-0.7,0.7-1.3,3-1.6,3.3c0-3.3,0-6.6,0.3-9.6c0-0.3-0.3-0.7-0.7-0.7c-0.3,0-0.7,0.3-0.7,0.7c-0.3,3-0.3,5.9-0.3,8.9   c-0.3-0.3-1-2-1.3-2c0-0.3-0.7-0.3-1-0.3c-0.3,0.3-0.3,0.7-0.3,1s2,3,2.6,3.6c0,1.7,0,3.3,0.3,4.6c-1-1-2.6-3.3-2.6-3.3   c0-0.3-0.7-0.3-1-0.3S9.3,87,9.7,87c0.7,2,2.6,3.3,4,4.3c0,2,0.3,4,0.3,5.6c-0.3-0.7-1-1-1.3-1.7c-0.7-1-1.3-2.3-1.6-2.6   c-0.3-0.3-1,0-1,0.3c-0.3,0.7,0.3,2,1.6,3.3c0.7,1,2,2.3,2.6,2.6c0,2,0,3.6-0.3,5.3c0,0.3,0.3,0.7,0.7,0.7   C15,105.3,15.3,105.3,15.6,105"/>
	<path class="st2" d="M34.1,61.1c0.3-0.3,0.3-0.7,0.3-1s-0.7-0.3-1-0.3c-0.7,0.3-1.3,0.7-1.7,1c-0.7,0.3-1,0.7-1.7,1   c0.7-1.3,1.3-2.6,2-4c1.3,0,2.3-0.7,3.6-1.3c0.7-0.3,1-0.7,1.7-1c0.3,0,0.7-0.7,0.3-0.7c0-0.3-0.7-0.7-0.7-0.3   c-0.7,0.3-1.3,0.7-2,1s-1.6,1-2.3,1l0,0c0.7-1,1-2.3,1.7-3.3c1.7,0,4.3-2,4.6-2.3c0.3,0,0.3-0.7,0-1c0-0.3-0.7-0.3-1-0.3   c-0.3,0.3-2.3,1.7-3.3,2c2-3.3,6.3-10.6,6.3-10.6c0-0.3,0-0.7-0.3-1s-0.7,0-1,0c-2.3,3-4.3,6.6-5.9,9.6c0-0.7-0.3-3.6-0.3-3.6   c0-0.3,0-0.7-0.7-0.7c-0.3,0-0.7,0.3-0.7,0.7c0,0.3,0.3,4.6,0.7,5.6c-0.7,1.3-1.3,2.3-1.7,3.6c0,0,0-0.3-0.3-0.3   c-0.7-1-1-2.3-0.7-3.3c0-0.3,0-0.7-0.7-0.7c-0.3,0-0.7,0-0.7,0.7c-0.3,1.7,0.3,3,1,4.3c0.3,0.3,0.3,1,0.7,1.3   c-0.7,1.7-1.7,3-2.3,4.3c-0.3-0.7-0.3-2-0.7-3c0-0.3,0-0.7,0-0.7c0-0.3,0-0.3,0-0.7l0,0c0-0.3-0.3-0.7-0.7-0.7s-0.7,0.3-0.7,0.7   l0,0v0.7c0,0.3,0,0.7,0,0.7c0.3,1.3,0.7,3.3,1,4.3c-0.7,1-1,1.7-1.7,2.6c-0.3,0.3,0,0.7,0,1c0.3,0.3,0.7,0,1,0   c0.7-0.7,1.3-1.7,2-2.6c1.3,0,2.3-0.7,3.3-1.3C32.8,61.8,33.5,61.4,34.1,61.1"/>
	<path class="st2" d="M128.8,33.7c-1-0.3-2.3-0.7-3.3-1.3c0,0,0,0-0.3-0.3c-0.3-1-0.7-2-1-3s-0.7-2-1.3-3c0-0.3-0.7-0.3-1-0.3   s-0.3,0.7-0.3,1c0.7,1,1,2,1.3,3c0.3,0.7,0.3,1.3,0.7,2c-1.3-0.7-3-1.3-4.3-2c0-0.7-0.3-1.6-0.7-2.6c-0.3-1-0.7-1.6-1.3-2.6   c-0.3-0.3-0.7-0.3-1,0s-0.3,0.7,0,1c0.7,0.7,0.7,1.3,1,2.3c0,0.3,0.3,1,0.3,1.3c-0.3,0-0.7-0.3-1-0.3c-1.3-0.7-2.6-1.3-4-2   c0-0.3,0-0.7,0-1c0-0.7,0.3-1.3-0.3-2.3c0-0.3-0.7-0.3-1-0.3c-0.3,0.3-0.3,0.7-0.3,1c0.3,0.7,0.3,1,0,1.6c0,0.3,0,0.3,0,0.7   c-2.3-1.3-4.3-2.3-6.6-4c-0.3,0-0.7,0-1,0.3s0,0.7,0.3,1c2,1.3,4,2.3,5.9,3.6c0,0,0,0-0.3,0c-0.7,0.3-1.3,0.7-2.3,0.7   c-0.3,0-0.7,0.3-0.7,0.7c0,0.3,0.3,0.7,0.7,0.7c1.3,0,2-0.3,3-0.7c0.3,0,0.7-0.3,1-0.7c1.3,0.7,3,1.7,4.3,2.3   c0.3,0,0.3,0.3,0.7,0.3c-0.7,0.3-1.6,0.3-2.6,0.7c-0.3,0-0.7,0-1,0.3c-0.3,0-0.7,0.3-0.3,0.7c0,0.3,0.3,0.7,0.7,0.7l1-0.3   c1.3-0.3,2.6-0.7,4-1.3c1,0.7,2.3,1,3.3,1.6c-0.3,0-0.3,0-0.7,0c-1,0.3-2,0.3-3,0.7c-0.3,0-0.7,0.3-0.7,0.7c0,0.3,0.3,0.7,0.7,0.7   c1,0,2-0.3,3-0.7c0.7,0,1.3-0.3,2-0.7c1.3,0.7,3,1.3,4.3,1.6c0.3,0,0.7,0,0.7-0.3C129.5,34,129.2,33.7,128.8,33.7"/>
	<path class="st2" d="M154.6,56.5c0-0.3,0-0.3,0-0.7c0-0.3,0-0.7,0.3-0.7c0.3-1.3,0.3-3,0.3-4.3c0-0.3-0.3-0.7-0.7-0.7   s-0.7,0.3-0.7,0.7c0,1.3,0,3-0.3,4.3c-0.7-1-1.3-2-2-3c0,0,0.3-0.7,0.3-1c0.3-1.3,0.3-2.6,0.3-4.3c0-0.3-0.3-0.7-0.7-0.7   s-0.7,0.3-0.7,0.7c0,1.3,0,2.3-0.3,3.6c-0.7-1-1.3-2-2.3-3.3c0.3-0.7,0.3-1.3,0.3-2.3s0-2,0-2.6c0-0.3-0.3-0.7-0.7-0.7   s-0.7,0.3-0.7,0.7c0,1,0,1.7,0,2.6c0,0.3,0,0.7,0,1c-0.3-0.7-1-1.3-1.3-2c-0.7-1-1.7-2-2.3-3c-0.3-0.3-0.7-0.3-1,0s-0.3,0.7,0,1   c0.7,1,1.6,2,2.3,3c0.3,0.7,1,1,1.3,1.7c-1-0.3-2-0.3-2.6-1.3c-0.3-0.3-0.7-0.3-1,0s-0.3,0.7,0,1c1.3,1.3,2.6,1.3,4,1.7   c0,0,0.3,0,0.7,0c0.7,1.3,1.6,2.3,2.3,3.6c-0.3,0-0.7,0-1-0.3c-0.7,0-1.3-0.3-2-0.7c-0.3-0.3-0.7,0-0.7,0.3c-0.3,0.3,0,0.7,0.3,1   c0.7,0.3,1.3,0.7,2,0.7s1.3,0.3,2.3,0.3c0.7,1,1.3,2,2,3.3c-0.3,0-0.7-0.3-1-0.3c-0.7-0.3-1.7-0.7-2.3-1c-0.3,0-0.7,0-1,0.3   s0,0.7,0.3,1c1,0.3,1.6,0.7,2.6,1c0.7,0.3,1.6,0.3,2.3,0.3c1,2,2.3,4.3,3.3,6.3c0,0.3,0.7,0.3,0.7,0.3c0.3,0,0.7-0.7,0.3-1   C156.9,60.8,155.9,58.5,154.6,56.5"/>
	<path class="st2" d="M165.1,87.8c-0.3-0.3-0.7-0.3-1,0s-0.3,0.7,0,1c0.7,1,1.7,2,2.3,3c0.7,0.7,1.7,1.3,2.6,2v3.6   c0,0.3,0.3,0.7,0.7,0.7s0.7-0.3,0.7-0.7v-3.6c0.3-0.3,0.3-0.3,0.7-0.3c0.3-0.3,0.3-0.3,0.7-0.7c1-1.3,2.3-3,3.3-4.9   c0-0.3,0-0.7-0.3-1s-0.7,0-0.7,0.3c-1,2-3.3,4.9-3.6,5.3l-0.3-5.6c0.7-0.7,1.7-1.7,2-2.6c0.7-1,1.3-2.3,1.7-3.6c0-0.3,0-0.7-0.3-1   c-0.3,0-0.7,0-1,0.3c-0.3,1.3-1,2.3-1.6,3.6c-0.3,0.7-0.7,1-1,1.3l-0.3-4.3c1.3-1.3,2-3.3,2.6-5.6l0,0c0-0.3,0-0.7-0.3-0.7   s-0.7,0-0.7,0.3l0,0c-0.3,1.3-1,3-1.7,4l-0.3-7.3c0-0.3-0.3-0.7-0.7-0.7s-0.7,0.3-0.7,0.7l0.3,7.9c0,0-2-1.3-2.6-2.3   c-0.3-0.3-0.7-0.3-1,0s-0.3,0.7,0,1c1,1,2,2,3,2.3c0.3,0,0.7,0.3,1,0.3l0.3,5h-0.5c-1-0.7-2-1.7-3.3-2.6c-0.3-0.3-0.7-0.3-1,0   s-0.3,0.7,0,1c1.3,1.3,2.3,2.3,3.6,3c0.3,0,0.3,0.3,0.7,0.3h0.3l0.3,5.6c-0.7-0.3-1-1-1.6-1.3C166.8,89.5,166.1,88.5,165.1,87.8"/>
	<path class="st2" d="M177.3,120.5c-1,1-3.3,2.6-3.6,2.6c1-2.6,2.3-5.3,3.6-8.2c0-0.3,0-0.7-0.3-0.7s-0.7,0-1,0.3   c-1,2.3-2,5-3.3,7.6c-0.3-1-0.3-2.3-0.7-3.3c0-0.3,0-2,0-2.3s-0.3-0.7-0.7-0.7s-0.7,0.3-0.7,0.7c0,0,0,2,0,2.3c0,1.7,0.3,3.6,1,5.3   c-0.7,1.6-1.3,3.3-2,4.6c-0.7-1.3-1.3-2.6-1.6-3.6c0-0.3,0-0.7-0.3-1c0-0.3,0-0.7,0-1s-0.3-0.7-0.7-0.7c-0.3,0-0.7,0.3-0.7,0.7l0,0   c0,0.3,0,0.7,0,1s0,0.7,0,1c0.3,1.7,1.3,3.3,2.3,4.9c-0.3,0.7-1.6,4-2,4.6c-0.3-0.7-0.7-1.6-0.7-2.3c-0.3-1.3-0.7-2.6-0.7-4   c0-0.3-0.3-0.7-0.7-0.7c-0.3,0-0.7,0.3-0.7,0.7c0,1.3,0.3,2.6,0.7,4c0.3,1.3,0.7,2.6,1.3,3.6c-0.7,1.3-1,2.3-1.6,3.6   c0,0.3,0,0.7,0.3,1c0.3,0,0.7,0,0.7-0.3c0.7-1.3,1-2.3,1.7-3.6c1-0.7,2-1,3-1.7s2-1.3,3.3-2.3c0.3,0,0.3-0.7,0-1s-0.7-0.3-1,0   c-1,0.7-2.3,1.7-3.3,2c-0.3,0.3-1,0.7-1.3,0.7c0.3-0.7,1.6-3.6,2-4.6c1-0.3,2-1,3-1.6c1-0.7,2.3-1.7,3.3-2.6c0.3-0.3,0.3-0.7,0-1   s-0.7-0.3-1,0c-1,1-2,2-3.3,2.6c-0.7,0.3-1,0.7-1.6,1c0.7-1.3,1-2.6,1.6-4c0.3,0,1-0.3,1.3-0.7c1.3-0.7,2.6-1.6,3.6-2.6   c0.3-0.3,0.3-0.7,0-1C178,120.5,177.7,120.5,177.3,120.5"/>
	<path class="st2" d="M182,107c0-0.3-0.7-0.7-1-0.7c-3.3,1.7-5.9,3.3-8.6,5.3c-0.3-2-0.7-4-1-5.9c4.6-6.6,6.9-13.5,6.6-21.1   c-0.3-7.6-3.3-15.8-8.2-24.1c-0.3-0.3-1-0.3-1.3,0l-4.6,10.6c-0.3,1-0.7,2.3-1,3.3c-1-2.3-2.3-6.3-2.3-7.3c0-0.3,0-1,0-1.3   c0-3.6,0-6.6-1.7-14.8l0,0c-2.3-6.9-8.9-12.5-14.8-15.8c-1-0.7-2-1.3-3-2s-2-1-2.6-1.3c-0.3-0.3-1,0-1,0.7c0,2,0,4,0.3,5.6   c-0.3-0.3-0.3-0.3-0.7-0.3c-0.7-0.3-1-0.7-1.6-1.3l0,0c0,0-2.6-2.3-4-3.6c-1-1.3-2-2.6-2.6-4c0-0.3-0.3-0.7-0.3-0.7l0,0l0,0l0,0   l0,0c-1.7-1.6-3.3-3.3-5.3-4.6c-2.3-1.6-4.6-2.6-8.2-4c0,0-4-0.7-8.2-1c-3.6-0.3-7.3-0.7-10.6-1.6l0,0H96c-0.3,0-0.7,0-0.7,0.3   s0,0,0,0.3c0.3,2.3,1.3,4.3,2.6,6.3c-2.6,1.3-4.6,2.6-6.6,4c-2,1.7-3.6,3.3-5.3,5c-0.3,0.3,0,1,0.3,1c3.6,0.7,6.9,1,10.6,0.7   c3.3,0,6.9-0.7,10.6-1.3c0,0,2,1.3,2.6,1.6c4,2,8.6,3.3,13.2,3.3l0,0c0,0,4.3-0.3,5.9-0.3c1.7,0,5-0.3,5-0.3s3.3,2.3,4,2.6   c1.3,7.6,5.3,13.5,7.9,16.5c0.7,0.7,1.3,1.3,1.7,2c0.3,0.3,0.7,0.7,1,0.7c1.7,1.3,3.3,3,5.3,4.6c1.7,2,3.3,4,5.3,6.3l0,0   c0.7,1,1,2,1.7,3.3s1,2.3,1.6,3.3c-0.3,1.6-0.7,3.3-0.7,4.6c-0.3,2.6-0.3,5-0.3,7.6c-0.7-0.7-1.3-1.3-2-2.3c-1.3-1.7-3-3.3-4.3-5   c-0.3-0.3-1-0.3-1.3,0c-2.3,6.6-2.6,12.5-2,17.5c1,5,3.3,9.6,6.3,13.2c0,0,2.3,2,3.6,3s2.6,2,4,3.3c-1,1.7-1.6,3-2.6,4.6   c-0.7,1.3-1,3-1.7,4.3c-0.3,1-0.3,2-0.7,2.6c-0.3-1-1-1.7-1.3-2.6c-1-1.7-2-3-3.3-4.3c-0.3-0.3-1-0.3-1,0.3c-1,3.3-2,6.6-3.6,9.6   c-0.3,0.7-0.7,1-0.7,1.7c-0.3,0.7-0.7,1.6-0.7,1.6c-2.6,3.6-4.3,7.3-5.6,10.9c-1.3,3.3-1.6,6.6-1.6,9.6c-0.3,0-0.7,0.3-1.3,0.3   c-6.6,2.6-11.9,6.9-15.8,12.2c-1.3,2.3-3,4-4.6,5.3c-1.6,1-3.3,1.6-5.3,2c4-4.3,6.6-9.6,8.2-15.5c0-0.7-0.3-1-1-0.7   c-1.6,0.7-3.3,1.3-5.3,1.7c-2,0.3-3.6,0.7-5.6,0.7l0,0v0.3v0.3v-0.7c-4.3,0.7-8.6,2-12.2,3.6c-2,1-4,2.3-5.6,4   c-1.3-1.3-3.3-2.6-5.9-3.6c-3-1-10.9-2.3-10.9-2.3c-2.3,0-4.6-0.3-6.9-0.7c-2.3-0.3-4.6-0.7-6.9-1.3c-0.7,0-1,0.3-0.7,1   c2.3,4.3,5.6,7.6,9.6,10.6c1.7,1,3,2,4.6,3c-0.3,0-1-0.3-1.3-0.3c-3.6-1-7.6-2.3-11.2-3.6c-6.6-5.9-13.2-10.6-20.1-13.5   c-0.7-0.3-1-0.3-1.7-0.7c0-3-0.3-5.9-1-9.2c-1-3.3-2.3-6.6-4.6-10.2c0,0-2.6-3.6-4-5.6c-1.3-2-2.3-4.3-3.3-6.9   c-0.3-0.3-1-0.7-1.3,0c-1,2-2,4-2.3,6.3c-1.7-4.6-4.3-8.9-7.9-12.9c5.6-5.3,9.9-11.2,11.9-17.2c2-6.3,2.3-12.9,0.3-19.8   c0-0.3-0.7-0.7-1-0.3c-1.7,0.7-3.3,1.7-4.6,3c-1,1-2,2-3,3.3c0-1.7-0.3-3.3-0.7-4.6c0-1-0.3-3-0.3-3c-0.3-1.3-0.7-2.3-1-3.6   c0.7-1,1-1.7,1.3-2.3c0.3-0.7,1.3-2.3,1.3-2.6c5.9-3.6,11.2-9.2,15.2-15.2c0.7-1.3,1.7-2.3,2-3.6c0.7-1.3,1.3-2.3,1.7-3.6   c0,0,2-6.3,2.3-9.2c1-0.7,2-1,3-1.7s2-1,3.3-1.6c1.7,0,3,0,4.6,0s3,0,4.6,0c3.6,0,6.9,0,9.9-1c3.3-0.7,5.9-2.3,8.6-4.3   c2.6-2.3,4.6-4.6,6.3-6.9s2.3-5,2.6-7.9c0-0.3-0.3-0.7-1-0.7c-4,1.6-8.6,2.6-12.9,3.6c-1.7,0.3-3,0.7-4.6,1l0,0   c-5.3,1-9.2,3.3-12.2,5.9s-5.3,5.9-7.3,9.6c-1,0.7-2,1-3,1.7c-0.7,0.3-1.3,0.7-2,1c0-0.7,0.3-1.3,0.3-2c0-1.3,0.3-2.6,0.7-3.6   c0-0.7-0.3-1-1-0.7c-5,2-7.9,4.6-11.2,7.3c-1,0.7-3.3,3-3.3,3l0,0c-8.2,7.9-8.2,19.1-8.6,27.4v2c-0.7,1-1,1.7-1.3,2.3   c0,0.3-0.3,0.7-0.7,1c-0.3-1.3-0.7-2.6-1.3-3.6c-1-2.6-2-5-3.3-7.3c-0.3-0.3-1-0.7-1,0c-2.6,4.3-4,7.9-5.3,11.9   c-0.8,0.4-1.8,3.4-1.8,3.4c-3,11.2,2,22.1,5.6,29.7c0.3,0.3,0.3,1,0.7,1.3v2c0,0.3,0,0.7,0,1.3c-0.7-0.7-1.7-1.3-2.3-2   c-1.3-1-2.6-2-4-3c-0.3-0.3-1,0-1,0.7c-0.3,7.6,0.3,14.2,2,19.8c2,5.6,5.3,9.9,9.6,13.2c3.6,2.6,6.6,5.3,9.2,8.6   c0.3,0.7,1,1.3,1.3,2l0.3,0.3c0,0.3,0,0.3,0.3,0.7c-2,0-4,0-5.9,0.3c-0.7,0-0.7,0.7-0.3,1c1.7,1.7,3.3,3.6,5,5.9   c1.6,2.3,4.9,7.3,4.9,7.3c4,4.6,8.6,7.3,13.5,8.2c4.9,1,10.6,1,16.5,0l18.5,4.9c-3.6,2-8.2,3.6-13.2,4.6c-0.3,0-0.3,0.3-0.3,0.7   c0,0.7,0,1,0.3,1.6c0,0.7,0.7,1.3,1,1.6c0,0,0.3,0.3,0.7,0.3c2.3-0.3,4.9-1,7.3-1.6c2.3-0.7,7.3-2.6,7.3-2.6c1.3-0.7,3.3-0.7,5.6-1   c1.3,0,2.3,0,4-0.3c1,0,2-0.3,3-0.3c0,0,7.3,2.3,10.6,3c3.6,0.7,6.9,1.3,10.9,1.7c0,0,0.3,0,0.7-0.3c0.7-0.7,1-1.6,1-2.6   s0-1.6-0.7-2.6c0,0-0.3-0.3-0.7-0.3c-2-0.3-4.3-0.3-6.6-0.7c-2-0.3-3.6-0.7-5.6-1c2.6-1.3,5-3,6.9-4.6c1,0,2,0,3,0s2,0,3-0.3   c5.9,1,11.6,1.3,16.8,0c5.3-1.3,9.9-3.6,14.2-7.6c4-3.6,7.3-6.9,9.2-9.9c2.3-3,3.6-5.3,4-6.9c0-0.3-0.3-1-0.7-0.7   c-1.3,0.3-2.3,0.3-3.6,0.7c1-1.6,1.6-3.3,2.3-4.9c3.3-1.3,6.3-2.6,9.2-5.9c3-3.3,8.2-15.5,8.9-16.8c0.3-1.7,1.3-9.2,1.7-13.9   c0-1,0-2,0-2.6C182,108.3,182,107.6,182,107 M97.1,33.1c-3,0-5.9,0-9.2-0.7c1.3-1.3,2.6-2.6,4.3-4c2-1.3,4-2.6,6.6-4   c0,0,1.6,2,2.3,2.6c-3,0.7-8.2,2.6-8.2,2.6c-0.3,0-0.7,0.7-0.3,1c0,0.3,0.7,0.7,0.7,0.3c0,0,6.6-2.6,8.9-3c1,1,4,3.3,4,3.6   C103.1,32.7,100.1,33.1,97.1,33.1 M129.2,36c-1.6,0-3.3,0.3-4.9,0.3c-4.9,0-9.2-1-13.2-3c-0.7-0.3-7.9-4.6-11.2-9.6   c0,0-0.3-0.3-1-1c-0.3-0.7-1.6-2-2.3-4.9c3,1,6.3,1.3,9.9,1.6c2.6,0.3,5.3,0.3,7.9,1c3,0.7,5.9,2.3,7.9,3.6s3.6,3,4.9,4.3   c0.7,1.3,1.7,3.3,3.3,4.6c0.7,1,1.7,1.6,2.3,2.3C131.8,36,130.5,36,129.2,36 M154.9,62.8c-1.7-2-5.3-5-5.3-5s-1.7-1.6-2.3-2.3   c-3.3-4-8.2-11.5-7.9-22.1c0.7,0.3,1,0.7,1.7,0.7c1,0.3,2,1,3,1.6c5.3,3.3,11.9,8.9,14.2,15.2l0,0c1.7,8.2,1.7,10.9,1.7,14.5v1.3   c0,0.3,0,0.7,0.3,1C157.9,66.1,156.5,64.4,154.9,62.8 M58.2,29.4c3-2.6,6.6-4.6,11.5-5.6c1.7-0.3,3-0.7,4.6-1c4-1,8.2-1.7,11.9-3.3   c-0.3,2.3-1,4.3-2.3,6.3c-1.7,2.3-3.6,4.6-5.9,6.9c-2.3,2-5.3,3.3-8.2,4.3c-3,0.7-6.3,1-9.6,1c-1.7,0-3.3,0-5,0c-1.3,0-2.3,0-3.6,0   C53.9,34.7,55.9,31.7,58.2,29.4 M23.6,71.3c0-7.9,0-19.1,8.2-26.7c1-1,2-1.7,3-2.3c3-2.6,5.6-4.6,9.6-6.6c0,1-0.3,1.6-0.3,2.6   c-0.7,3.6-1,7.6-3,12.5c-0.3,1.3-1,2.3-1.7,3.6s-1.3,2.3-2,3.6c-3.6,5.6-8.6,10.6-13.9,14.2C23.6,72,23.6,71.7,23.6,71.3    M73.4,173.3c-3.6-2.3-6.6-5.3-8.6-8.9c2,0.3,3.6,0.7,5.6,1c2.3,0.3,4.6,0.7,6.9,0.7l0,0c4.3,0.3,7.6,1,10.6,2c2.6,1,4.3,2,5.6,3.3   c-1,1-2,2-2.6,3.3c-1.3-0.7-2.6-1-4-1.7c-0.7-1-1.3-2-2.3-3c0-0.3-1-1.3-1.3-1.3c-0.3-0.3-0.7,0-1,0c-0.3,0.3,0,0.7,0,1l0,0   c0,0,2,2,2.3,2.3c-1-0.3-2.3-1-3.3-1.3c-0.7-1.7-1.7-3-2.6-3.6c-0.3,0-0.3-0.3-0.7-0.3s-0.3-0.3-0.7-0.3s-0.7,0.3-0.7,0.7   c0,0.3,0.7,0.7,1,0.7c0,0,1.3,1.3,2,2c-2.6-1-5.6-2.3-8.6-3.3c-0.3,0-0.7,0-1,0.3c0,0.3,0,0.7,0.3,0.7c2.6,1,5.6,2.3,8.6,3.6   c-0.3,0-0.3,0-0.7,0c-0.7,0-1.6,0-2.6,0c-0.3,0-0.7,0.3-0.7,0.7c0,0.3,0.3,0.7,0.7,0.7c1,0,2,0,3,0s2-0.3,2.6-0.7   c1.3,0.7,2.3,1,3.6,1.3c-0.3,0-1,0.3-1.3,0.3c-1,0-2,0.3-3,0.3c-0.3,0-0.7,0.3-0.7,0.7s0.3,0.7,0.7,0.7c1,0,2.3-0.3,3.3-0.3   c1-0.3,2-0.7,2.6-1c1.3,0.7,2.3,1,3.6,1.6c-0.7,1.3-2,2.6-3,4c-0.7,0-1.3-0.3-2-0.7C81,177.6,77,175.6,73.4,173.3 M22.9,92.1   C22.9,91.8,22.9,91.8,22.9,92.1c1.3-2,2.3-3.3,3.6-4.3c1-1,2.3-1.6,3.6-2.3c1.7,6.6,1.3,12.5-0.7,18.2c-2,5.9-5.9,11.5-11.6,16.8   c-0.3-0.3-0.7-0.7-1.3-1.3c1-1.7,2-3.3,3-5.3l0,0c0.7-0.7,0.7-0.7,1-0.7c1-0.7,2-1.3,3-2c0.3-0.3,0.3-0.7,0.3-1   c-0.3-0.3-0.7-0.3-1-0.3c-0.7,0.3-1.3,1-2,1.3c0.7-1.3,1.3-2.6,2-4.3c0.7-0.7,1.3-1,2-1.3s1.3-0.7,2-0.7c0.3,0,0.7-0.3,0.7-0.7   c0-0.3-0.3-0.7-0.7-0.7c-0.7,0.3-1.3,0.3-2,1c0,0-0.3,0-0.3,0.3c0.3-1,1-2,1.3-3.3l0,0c0.3-0.3,0.7-0.7,1.3-1.3   c0.7-0.3,1.3-0.7,2-1c0.3,0,0.3-0.7,0.3-1s-0.7-0.3-0.7-0.3c-1,0.3-1.7,0.7-2.3,1.3c0.3-1,0.7-2,1-3.3l0,0c0.3-0.3,0.7-1,1-1.3   s0.7-0.7,1.3-1c0.3,0,0.3-0.7,0.3-1s-0.7-0.3-1-0.3c-0.3,0.3-0.7,0.3-1,0.7c0.3-0.7,0.3-1.3,0.7-2c0-0.3,0-0.7-0.7-0.7   c-0.3,0-0.7,0-0.7,0.3c-0.3,1.7-0.7,3-1.3,4.3c-0.7,1.7-1,3-1.7,4.3c-2.6,6.9-5.6,12.9-8.6,18.2c-0.3-0.3-0.3-0.3-0.7-0.7   c0,0,0-3.3,0-4.6c1-2,2-4.3,3.3-6.6c0.3-0.7,1.7-4,1.7-4C22.2,98.4,22.9,95.1,22.9,92.1 M9,82.6L9,82.6c0.7-1.3,1-3,1.7-4.3   c1.3-3.6,2.3-6.9,4.6-10.6c1,2,2,4,2.6,5.9c1,2.6,1.6,5.3,2.6,8.9l0,0c0,1,0.3,2,0.3,3c0.7,5.6,1.3,10.6-1.6,15.8   c0,0-1.7,3.3-2,4.6c-1,2-1.7,4-2.6,5.3C14.6,111.3,6.1,93.4,9,82.6 M19.3,143.9c-4.3-3-7.3-7.3-9.2-12.5c-1.6-5.3-2.3-11.2-2-18.2   c1,0.7,2,1.3,3,2c1.3,1,2.3,2,3.6,3c5.6,5.3,9.6,11.2,11.5,17.8v0.3c0,1.3-0.3,2.6,0,4c0,3.6,0.7,7.3,2,11.2   C25.5,148.9,22.6,146.3,19.3,143.9 M27.2,140.3c0-4.3,0.7-7.9,2-11.2c1,2,2,4,3,5.6c1.3,2,2.6,4,4,5.6c2.3,3.3,3.6,6.6,4.6,9.6   c0.7,3,1,5.6,1,8.6c-1.3-0.3-2.3-0.7-3.6-1c-0.3-0.3-0.3-1-0.7-1.3c0.3-0.7,0,0.3,0,0c0.7-1.6,1.7-3.6,2.3-5.3c0-0.3,0-0.7-0.3-1   c-0.3,0-0.7,0-1,0.3c-0.7,1.3-1,2.6-1.7,4c-0.7-1.3-1-2.6-1.7-4c0.3-0.7,0.7-1.3,1-2c0.3-1,0.7-2,1.3-2.6c0-0.3,0-0.7-0.3-0.7   s-0.7,0-1,0.3c-0.3,1-0.7,1.6-1.3,2.6c0,0.3-0.3,0.3-0.3,0.7c0-0.3-0.3-0.7-0.3-1.3c-0.3-0.7-0.3-1.3-0.7-2v-0.3   c0-0.7,0.3-1.3,0.3-2c0.3-0.7,0.7-1.3,1-1.6s0.3-0.7,0-1s-0.7-0.3-1,0c-0.7,0.7-1,1.3-1.3,2v0.3c-0.7-2-1-4-1.3-5.6   c0-0.3-0.3-0.7-0.7-0.3c-0.3,0-0.7,0.3-0.7,0.7c0.3,2,1,4,1.7,5.9c-0.7-0.3-1.7-1-2.3-1.6c-0.3-0.3-0.7,0-1,0c-0.3,0.3-0.3,0.7,0,1   c1,0.7,2,1.6,3,2c0.3,0,0.3,0,0.7,0.3c0.3,0.7,0.7,1.7,0.7,2.3c0.3,0.7,0.3,1,0.7,1.7c-0.3,0-0.7-0.3-0.7-0.3   c-0.7-0.3-1.7-0.7-2.3-1c-0.3,0-0.7,0-1,0.3c0,0.3,0,0.7,0.3,1c0.7,0.3,1.7,0.7,2.3,1c0.7,0.3,1.3,0.7,2,1c0.7,2,1.6,4,2.3,5.9   c-2-0.3-3.6-0.7-5.6-1c-0.3-0.3-0.7-1-0.7-1.3C28.5,149.5,27.5,144.6,27.2,140.3 M63.2,177.6c-5.9,1-11.2,1.3-16.2,0   c-4.9-1-9.2-3.6-12.9-7.9l0,0c-1.7-2.3-3.3-4.9-5-7.3c-1.3-2-3-3.6-4.3-5.3c6.6-0.3,13.2,0.7,19.5,3.3c6.9,3,13.5,7.3,19.8,13.2   c0,0,7.9,2.6,11.6,4c3,1,5.9,1.7,8.9,2.3c0.3,0.3,0.7,0.3,1.3,0.7c-0.7,0.7-1.7,1.3-2.6,2L63.2,177.6z M112,186.2   c2,0.3,4.3,0.7,6.3,1c0.3,0.7,0.3,1,0.3,1.7s-0.3,1-0.7,1.6c-3.3-0.3-6.9-0.7-10.2-1.3c-3-0.7-5.6-1.3-8.6-2.3c2-0.7,4-1,5.6-2   l0.3,0.3C107.7,185.5,109.7,185.8,112,186.2 M113.3,177.6c-4.6,4.3-11.2,7.6-19.5,8.6c-1.3,0-2.6,0-4,0.3c-2.6,0-4.6,0.3-6.3,1l0,0   c-2.3,1-4.6,2-6.9,2.6c-2.3,0.7-4.3,1.3-6.6,1.7c-0.3-0.3-0.3-0.7-0.7-1c0-0.3,0-0.7-0.3-0.7c5.6-1.3,10.2-3,13.9-5.3   c3.6-2.3,6.6-4.9,8.3-8.2c0.3,0,0.3-0.3,0.3-0.3V176c2.6-3.3,5.6-5.9,8.9-7.6c3.6-2,7.6-3,11.9-3.6l0,0c2,0,4-0.3,5.6-0.7   c1.3-0.3,3-0.7,4.3-1.3C120.6,168.4,117.6,173.6,113.3,177.6 M162.8,81.2c0.3-3.3,1-6.6,2.3-9.9l4-9.2c4.6,7.9,6.9,15.2,7.3,22.4   c0.3,6.9-1.7,13.5-5.6,19.5c-0.3-0.7-0.3-1.3-0.7-1.7c-1.3-3.6-3.3-6.9-6.6-10.6l0,0c-0.3-0.3-0.7-0.7-1-1   C162.5,87.5,162.5,84.5,162.8,81.2 M162.8,114.6c-1.3-1-2.3-2-3.6-3c-3-3.6-5.3-7.6-5.9-12.5c-0.7-4.6-0.3-9.9,1.7-15.8   c1,1.3,2.3,2.6,3.6,4c1,1.3,2,2.3,3,3.6c0,0,0,0.3,0.3,0.3c0.3,0.3,0.7,0.7,1,1l0,0c3,3.3,4.9,6.9,6.3,10.2c1.3,3.3,2,6.6,2,9.9   c-0.7,0.7-1.3,1.3-2,2c-1-1.7-2-3.3-3-4.9c0.3-1,0.7-2.6,0.7-4.6c0-0.7,0-3,0-3c0-0.3-0.3-0.7-0.7-0.7c-0.3,0-0.7,0.3-0.7,0.7   c0,0,0,2.3,0,2.6c0,1.3-0.3,2.3-0.3,3c-0.7-1.3-3-5.3-3-5.6c0.3-0.7,0.3-1.7,0.7-2.6c0.3-1.3,0.3-2.6,0.3-4.3   c0-0.3-0.3-0.7-0.7-0.7s-0.3,1-0.3,1.3c0,1.3-0.3,3-0.3,4c0,0.3,0,0.7-0.3,1c-1.3-3-2.6-5.9-4-8.9c0-0.3-0.7-0.7-1-0.3   c-0.3,0-0.3,0.7-0.3,0.7c1.3,3.3,2.6,6.3,4,9.2c-0.3-0.3-1-0.3-1.3-0.7c-1-0.7-2-1.3-3-2c-0.3-0.3-0.7-0.3-1,0s-0.3,0.7,0,1   c1,0.7,2,1.7,3,2.3c1,0.7,2,1,3,1.3c0.3,0.3,2,4,2.6,5.3c-0.7-0.3-4-2-4.9-3c-0.3,0-0.7,0-1,0.3s0,0.7,0,1c1.3,0.7,5.6,3.3,6.9,3.6   c1,1.7,2,3.6,3.3,5.3c-0.7,0.7-1.3,1.3-1.6,2.3C165.5,116.5,164.1,115.6,162.8,114.6 M162.5,154.8c-0.7,1.6-1.6,3.3-3.3,5.6   c-2,2.6-5.3,5.9-9.2,9.6c-4,3.6-8.6,6.3-13.5,7.3c-4.9,1.3-10.6,1-16.2,0c0,0,1.3-0.7,2.3-1.3c2-1.3,3.6-3.3,5.3-5.6l0,0   c4-5.3,8.9-9.2,15.2-11.9c1.3-0.7,2.3-1,3.6-1.3s2.6-0.7,4-1C150.3,156.1,158.9,155.5,162.5,154.8 M158.2,153.8   C157.9,153.8,157.9,154.2,158.2,153.8c-2,0.3-4,0.7-5.6,0.7c0.3-0.7,0.7-1,0.7-1.7c0.3-1,1.3-3.3,1.3-3.3c0.7-0.3,1.6-0.7,2.3-1.3   c1-0.7,1.6-1.6,2.6-2.6c0.3-0.3,0.3-0.7,0-1s-0.7-0.3-1,0c-0.7,1-1.6,1.7-2.6,2.3c-0.3,0.3-0.7,0.7-1,0.7c0.3-1.6,1-3.3,1.3-4.9   c0.3-0.3,1-0.7,1.6-1c0.7-0.7,1.3-1.3,2-2c0.3-0.3,0.3-0.7,0-1s-0.7-0.3-1,0c-0.7,0.7-1.3,1.3-2,2l-0.3,0.3c0.3-2.6,0.7-5.3,1-7.9   c0-0.3-0.3-0.7-0.7-0.7s-0.7,0.3-0.7,0.7c-0.3,2.6-0.3,5.3-1,7.9c-0.3-0.3-0.3-0.3-0.7-0.7c-0.3-0.7-0.7-1.3-1-2.3   c0-0.3-0.3-0.7-0.7-0.3c-0.3,0-0.7,0.7-0.3,1c0.3,1,0.7,1.7,1.3,2.6c0.3,0.7,0.7,1,1.3,1.7c-0.3,1.6-0.7,3.3-1.3,4.9   c0-0.3-0.3-0.3-0.3-0.7c-0.3-0.7-1-2-1.3-3.3c0-0.3-0.7-0.7-1-0.3c-0.3,0-0.7,0.7-0.3,0.7c0.7,1.7,1,2.6,1.7,3.3   c0.3,0.7,0.7,1.3,1,1.6l-1.3,3.3c-0.7-0.7-1-1.6-1.7-2.3c0-0.3-0.3-1-0.7-1.3c0-0.3-0.7-0.3-0.7-0.3c-0.3,0-0.7,0.7-0.3,1   c0,0,0.3,1,0.7,1.3c0.7,1,1.3,2,2,3c0,0.3-0.3,0.3-0.3,0.7c0,0-5.9,1.7-6.6,1.7c0-2.6,0.3-5.6,1.6-8.9c1-3.3,3-6.9,5.6-10.6   c0,0,1.6-3,1.6-3.6c1.3-2.6,2.3-5.6,3.3-8.6c1,1,1.7,2.3,2.3,3.3c1,1.3,1.7,3,2,4.3C163.8,140.3,162.2,147.9,158.2,153.8    M180.6,111.9c-0.3,4.6-1,10.2-1.6,13.9c0,0-5.6,13.2-8.2,16.2c-2.6,2.6-5.3,4.3-7.9,5.3c1.3-4.6,1.3-9.6-0.3-14.5   c0,0,0.7-3.3,1-4.6s1-3,1.6-4.3c1.7-4,4.3-7.3,7.6-10.6c0.3,0,0.3-0.3,0.3-0.3c2.3-2,4.9-3.6,7.9-5.3c0,0.3,0,1,0,1.3   C180.6,109.9,180.6,110.9,180.6,111.9"/>
	<path class="st2" d="M148.6,161.4c0.3-1,0.7-2,1-2.6c0.3-0.3,0-0.7-0.3-1c-0.3,0-0.7,0-1,0.3c-0.7,1-1,2-1.3,3s-0.3,1.7-0.7,2.6   c-1.7,1-3,2-4.6,2.6c0-1.3,0.3-2.3,0.7-3.6c0-0.3,0.3-1.7,0.7-2c0-0.3,0-0.7-0.3-0.7s-0.7,0-1,0.3c0,0.3-0.7,1.6-0.7,2   c-0.3,1.7-0.7,3.3-0.7,4.6c-1.6,1-3.3,2-4.9,2.6c0-0.7,0.3-1.6,0.3-2.3c0.3-1,1-2,1.6-3.3c0.3-0.3,0-0.7,0-1c-0.3-0.3-0.7,0-1,0   c-0.7,1.3-1.3,2.3-2,3.6c-0.3,1-0.3,2.3-0.3,3.3c-2.6,1.3-5.6,2.6-8.6,4c-0.3,0-0.3,0.7-0.3,0.7c0,0.3,0.7,0.7,0.7,0.3   c1-0.3,2-1,3.3-1.3c0,0,0,0,0.3,0c1,0.3,2,0.7,3,0.7s2,0,3,0c0.3,0,0.7-0.3,0.7-0.7c0-0.3-0.3-0.7-0.7-0.7c-1,0-2,0-2.6,0   c-0.7,0-1-0.3-1.6-0.3c1.3-0.7,2.6-1.3,4-2c1,0.3,2,0.7,3,0.7s2,0.3,3,0c0.3,0,0.7-0.3,0.7-0.7c0-0.3-0.3-0.7-0.7-0.7   c-0.7,0-1.6,0-2.6,0c-0.3,0-1,0-1.3-0.3c1.6-0.7,3.3-1.6,4.6-2.6c0.7,0.3,1.6,0.3,2.3,0.3c1,0,1.6,0,2.6,0c0.3,0,0.7-0.3,0.7-0.7   c0-0.3-0.3-0.7-0.7-0.7c-1,0-3-0.3-3.3-0.3c1.3-0.7,2.6-1.6,4-2.6c0.7,0.3,1.3,0.3,2,0.3s1.6,0,2.3,0c0.3,0,0.7-0.3,0.7-0.7   c0-0.3-0.3-0.7-0.7-0.7c-0.7,0-2.6,0-2.6,0c2.3-1.7,4.6-3,6.9-4.6c0.3-0.3,0.3-0.7,0-1s-0.7-0.3-1,0c-2.3,1.6-4.6,3.3-6.9,4.6   C148.3,162.4,148.3,161.8,148.6,161.4"/>
	<path class="st2" d="M22.6,139.6c0.3-1,0.3-2.3,0.3-3.3s0-2-0.3-3.3c0-0.3-0.3-0.7-0.7-0.7c-0.3,0-0.7,0.3-0.7,0.7c0,1,0,2,0.3,3.3   c0,0.3,0,0.7,0,1c-0.7-1-1.3-2.3-2-3.3c0-2-0.3-4.6-0.7-6.9l0,0c0-0.3-0.3-0.7-0.7-0.7c-0.3,0-0.7,0.3-0.7,0.7l0,0   c0.3,1.3,0.3,2.6,0.3,4c0,0,0-0.3-0.3-0.3c-0.3-1-1-1.7-1.3-2.6c0,0-0.3-2.3-0.3-3.3s-0.3-2-0.3-3.3c0-0.3-0.3-0.7-0.7-0.7   s-0.7,0.3-0.7,0.7l0,0c0,1,0.3,2.3,0.3,3.3l0,0c-1.3-2.3-2.3-4.3-3.6-6.6c-0.3-0.3-0.7-0.3-1-0.3c-0.3,0.3-0.3,0.7-0.3,1   c1.3,2.6,3,4.9,4.3,7.6c-0.3,0-0.7-0.3-0.7-0.3c-1-0.3-2-0.7-3-1c-0.3,0-0.7,0-0.7,0.3s0,0.7,0.3,0.7c1,0.3,2,0.7,3,1   c0.7,0.3,1.3,0.7,2.3,1c0.7,1,1,2,1.7,3c0.3,0.7,0.7,1,0.7,1.3c-0.3-0.3-1-0.3-1.3-0.7c-1-0.7-2.3-1-3.3-1.3c-0.3,0-0.7,0-1,0.3   c0,0.3,0,0.7,0.3,0.7c1,0.3,2,0.7,3,1.3c1,0.7,2,1,3,1.3c0.7,1,1.3,2.3,1.7,3.3l0,0c-1.7-0.7-3-1.3-4.6-2.3c-0.3-0.3-0.7,0-1,0   c-0.3,0.3,0,0.7,0,1c1.6,1,3.3,2,4.9,2.6c0.3,0,0.7,0.3,1,0.3s0.3,0,0.7,0.3c0.7,1.3,1.3,2.3,1.7,3.6c0,0.3,0.7,0.3,1,0.3   s0.3-0.7,0.3-1C23.9,142,23.2,141,22.6,139.6"/>
	<path class="st2" d="M61.2,174.6c-2.3-1-4.6-2-7.3-3l-4-5.9c-0.3-0.3-0.7-0.3-1-0.3s-0.3,0.7-0.3,1l2.6,4.3c-1.3-0.7-2.6-1.3-4-2   c-0.7-1-1-2-1.7-3s-1.3-2-1.7-3c-0.3-0.3-0.7-0.3-1-0.3c-0.3,0.3-0.3,0.7-0.3,1l0,0l0,0c0.7,1,1.3,2,2,3c0.3,0.3,0.7,0.7,0.7,1.3   c-1.3-0.7-2.6-1.3-4-2c-0.3-0.7-1-1.3-1.7-2.3c-0.7-0.7-1-1.6-1.6-2.3c0-0.3-0.7-0.3-1-0.3c-0.3,0.3-0.3,0.7-0.3,1   c0.7,0.7,1,1.6,1.7,2.3l0.3,0.3c-2.6-1.3-5.3-3-7.9-4.3c-0.3,0-0.7,0-1,0.3s0,0.7,0.3,1c2.6,1.7,5.6,3.3,8.2,4.6   c-0.3,0-0.3,0-0.7,0c-1,0-2,0-3,0.3c-0.3,0-0.7,0.3-0.7,0.7c0,0.3,0.3,0.7,0.7,0.7c1,0,2-0.3,3-0.3s1.6,0,2.6-0.3   c1.3,0.7,2.6,1.3,4,2c-0.3,0-1,0-1.3,0c-1.3,0-2.6,0-4,0.3c-0.3,0-0.7,0.3-0.7,0.7c0,0.3,0.3,0.7,0.7,0.7c1.3,0,2.6-0.3,3.6-0.3   c1.3,0,2.3,0,3.6-0.3c1.3,0.7,3,1.3,4.3,2l-5,1.3c-0.3,0-0.7,0.3-0.3,0.7c0,0.3,0.3,0.7,0.7,0.7l6.6-1.6c1,0.3,2,1,3.3,1.3   c-1.6,0.7-4.9,1-4.9,1c-0.3,0-0.7,0.3-0.7,0.7c0,0.3,0.3,0.7,0.7,0.7c0,0,4-0.7,6.6-1.6c0.7,0.3,1.7,0.7,2.3,1c0.3,0,0.7,0,0.7-0.3   C61.5,175.3,61.5,175,61.2,174.6"/>
	<path class="st2" d="M117.6,165.7c-3,2-5.6,4-8.6,5.6c0-0.3,0.3-1,0.3-1.3c0.3-0.7,0.7-1.6,1-2.3c0.3-0.3,0-0.7-0.3-1   c-0.3,0-0.7,0-1,0.3c-0.7,1-1,1.7-1,2.6c-0.3,0.7-0.3,1.7-0.3,2.3c-1,0.7-2.3,1.3-3.3,2c0-0.7,0.3-1.6,1-3c0-0.3,0.3-0.7,0.3-1   s0.3-0.7,0.7-1c0-0.3,0-0.7-0.3-1s-0.7,0-1,0.3l0,0c-0.3,0.3-0.3,0.7-0.7,1c0,0.3-0.3,0.7-0.7,1c-0.7,1.6-1,3-1,4.3   c-1.3,0.7-2.6,1.7-4,2.3c0-0.7,0-1.3,0.3-2c0.3-1.3,1-2.6,2-4.3c0-0.3,0-0.7-0.3-1c-0.3,0-0.7,0-1,0.3c-1,1.7-1.6,3.3-2,4.6   c-0.3,1.3-0.3,2.3-0.3,3c-1,0.7-1.7,1-2.6,1.7c0-0.7,0.3-1.3,0.3-2.3c0.3-1,0.7-2.3,1.3-3.3c0-0.3,0-0.7-0.3-0.7s-0.7,0-1,0.3   c-0.7,1.3-1,2.3-1.3,3.6c-0.3,1-0.3,2.3-0.7,3.3c-1.6,1-3.3,2-4.9,2.6c-0.3,0-0.3,0.7-0.3,1s0.7,0.3,1,0.3c1.7-1,3.6-2,5.3-2.6   c1,0.3,2.3,0.3,3.3,0.7c1.3,0.3,2.3,0.3,3.6,0.3c0.3,0,0.7-0.3,0.7-0.7c0-0.3-0.3-0.7-0.7-0.7c-1.3,0-2.3,0-3.6-0.3   c-0.7,0-1.3-0.3-1.7-0.3c0.7-0.3,1.7-1,2.3-1.3c1,0.3,2.3,0.3,3.3,0.3c1.3,0,2.3,0,3.6,0c0.3,0,0.7-0.3,0.7-0.7   c0-0.3-0.3-0.7-0.7-0.7c-1.3,0-2.6,0-3.6,0c-0.7,0-1,0-1.6,0c1-0.7,2.3-1.3,3.3-2c1,0.3,2.3,0.3,3.3,0.3c1.3,0,2.3,0,3.6,0   c0.3,0,0.7-0.3,0.7-0.7c0-0.3-0.3-0.7-0.7-0.7c-1.3,0-2.3,0-3.6,0c-0.7,0-1.3,0-1.6,0c1-0.7,2-1.3,3-2h4.9c0.3,0,0.7-0.3,0.7-0.7   c0-0.3-0.3-0.7-0.7-0.7h-3c2.6-1.6,5.3-3.3,7.9-5.3C117.9,166.4,117.9,166,117.6,165.7C118.3,165.7,117.6,165.4,117.6,165.7"/>
	<path class="st2" d="M45.3,53.8L42,56.5v76.2c0.7,14.5,8.9,19.5,21.4,19.1l17.8,0.7c6.6,1.6,9.6,5.6,11.6,9.2   c0.3,0.7,0.3,1,0.7,1.7c2-5.3,5.6-9.6,12.5-10.9c6.3,0,12.9-0.3,19.1-0.7c10.2,0,16.2-4.9,16.8-15.8v-3v-0.3V53.5H92.7L45.3,53.8   L45.3,53.8z M127.2,148.2c-6.9,0-13.9,0-20.8,0.7c-5.6,0.7-9.6,2.6-12.5,6.9c-0.3-0.3-0.3-0.7-0.7-0.7c-3.3-4-7.3-5.9-11.5-6.3   c-7.3-0.7-14.5-0.7-21.8-0.7c-8.2-0.3-13.5-4.6-13.5-15.2V55.8h46.9h46.9v76.9C140.7,142,136.4,147.6,127.2,148.2"/>
	<polygon class="st2" points="80.6,59.1 49.6,59.1 49.6,62.1 78.3,62.1 78.3,65.1 50,65.1 50,67 78.3,67 78.3,70.3 50,70.3 50,72.7    78.3,72.7 78.3,75.6 50,75.6 50,77.6 78.3,77.6 78.3,80.2 50,80.2 50,82.2 78.3,82.2 78.3,84.9 50,84.9 50,87.2 78.3,87.2    78.3,89.8 49.6,89.8 49.6,92.1 80.6,92.1  "/>
	<polygon class="st2" points="106.7,62.1 135.1,62.1 135.1,65.1 107,65.1 107,67 135.1,67 135.1,70.3 107,70.3 107,72.7 135.1,72.7    135.1,75.6 107,75.6 107,77.6 135.1,77.6 135.1,80.2 107,80.2 107,82.2 135.1,82.2 135.1,84.9 107,84.9 107,87.2 135.1,87.2    135.1,89.8 106.7,89.8 106.7,92.1 137.7,92.1 137.7,59.1 106.7,59.1  "/>
	<path class="st2" d="M106.7,114.6h28.4v1v1.3v1.3h-28.4v2h28.4v3.6h-28.4v1.6h28.4v3.6h-28.4v1.7h28.4v3h-28.4v1.7h28.4   c0,1.3-0.3,2.6-0.7,3h-27.7v1.6h26.7c0,1.7-4.3,3.3-7.6,3.3h-19.1v2h19.1c6.9,0.7,11.9-3.6,12.2-9.6v-24.8h-31L106.7,114.6   L106.7,114.6z"/>
	<path class="st2" d="M49.6,114.6H78v3.3H49.6v2H78v3.6H49.6v1.7H78v3.6H49.6v1.7H78v3H49.6c0,0.7,0,1.3,0.3,2h28v3H50.6   c0,0.7,0.7,1.3,1.3,2h25.7v3.3H53.9c1.3,1,3.3,2,5.3,2h21.5v-34.3H49.3v3.3L49.6,114.6L49.6,114.6z"/>
	<polygon class="st0" points="195,94 195,62.4 215.8,62.4 214.9,67.6 202,67.6 202,74.9 212.7,74.9 212.7,79.9 202,79.9 202,88.4    216.1,88.4 216.1,94  "/>
</g>
</svg>